<svg width="16" height="16" viewBox="0 0 16 16" fill="none" xmlns="http://www.w3.org/2000/svg">
<g id="brand/br-instagram">
<path id="Vector" d="M7.99998 4.57683C7.32291 4.57683 6.66104 4.7776 6.09808 5.15377C5.53511 5.52993 5.09634 6.06458 4.83723 6.69011C4.57813 7.31564 4.51033 8.00396 4.64242 8.66802C4.77451 9.33208 5.10056 9.94206 5.57932 10.4208C6.05808 10.8996 6.66806 11.2256 7.33212 11.3577C7.99618 11.4898 8.6845 11.422 9.31003 11.1629C9.93556 10.9038 10.4702 10.465 10.8464 9.90207C11.2225 9.3391 11.4233 8.67723 11.4233 8.00016C11.4233 7.09224 11.0626 6.2215 10.4206 5.5795C9.77864 4.9375 8.9079 4.57683 7.99998 4.57683ZM7.99998 10.2228C7.56038 10.2228 7.13065 10.0925 6.76513 9.84824C6.39962 9.60401 6.11473 9.25688 5.9465 8.85074C5.77828 8.4446 5.73426 7.9977 5.82002 7.56654C5.90578 7.13539 6.11747 6.73935 6.42832 6.4285C6.73916 6.11765 7.1352 5.90597 7.56636 5.8202C7.99751 5.73444 8.44442 5.77846 8.85056 5.94669C9.2567 6.11491 9.60383 6.3998 9.84806 6.76532C10.0923 7.13083 10.2226 7.56056 10.2226 8.00016C10.2226 8.58965 9.98847 9.15499 9.57164 9.57183C9.15481 9.98866 8.58947 10.2228 7.99998 10.2228ZM12.3593 4.4415C12.3593 4.59972 12.3124 4.75439 12.2245 4.88595C12.1366 5.01751 12.0116 5.12005 11.8655 5.1806C11.7193 5.24115 11.5584 5.25699 11.4032 5.22612C11.2481 5.19526 11.1055 5.11906 10.9936 5.00718C10.8817 4.8953 10.8056 4.75275 10.7747 4.59757C10.7438 4.44238 10.7597 4.28153 10.8202 4.13535C10.8808 3.98917 10.9833 3.86423 11.1149 3.77632C11.2464 3.68842 11.4011 3.6415 11.5593 3.6415C11.6644 3.6415 11.7684 3.66219 11.8655 3.70239C11.9625 3.7426 12.0507 3.80152 12.125 3.87581C12.1993 3.9501 12.2582 4.03829 12.2984 4.13535C12.3386 4.23241 12.3593 4.33644 12.3593 4.4415ZM14.3173 3.6335C14.1496 3.18858 13.8871 2.78548 13.548 2.45216C13.2153 2.1131 12.8126 1.85076 12.368 1.6835C11.8499 1.48934 11.3025 1.38474 10.7493 1.37416C10.0386 1.3415 9.81131 1.3335 7.99998 1.3335C6.18865 1.3335 5.96198 1.34083 5.25065 1.37416C4.69769 1.38492 4.15058 1.48952 3.63265 1.6835C3.1881 1.85088 2.78542 2.1132 2.45265 2.45216C2.11297 2.785 1.85037 3.18824 1.68331 3.6335C1.48941 4.15145 1.38481 4.69855 1.37398 5.2515C1.34065 5.96216 1.33331 6.1895 1.33331 8.00016C1.33331 9.81083 1.34065 10.0382 1.37398 10.7488C1.38481 11.3018 1.48941 11.8489 1.68331 12.3668C1.85037 12.8121 2.11297 13.2153 2.45265 13.5482C2.78581 13.887 3.18868 14.1492 3.63331 14.3168C4.15128 14.5107 4.69837 14.6153 5.25131 14.6262C5.96265 14.6588 6.18998 14.6668 7.99998 14.6668C9.80998 14.6668 10.038 14.6595 10.7486 14.6262C11.3018 14.6154 11.8491 14.5108 12.3673 14.3168C12.8103 14.1456 13.2125 13.8836 13.5483 13.5478C13.8841 13.212 14.146 12.8098 14.3173 12.3668C14.5115 11.849 14.6161 11.3018 14.6266 10.7488C14.6593 10.0375 14.6666 9.81083 14.6666 8.00016C14.6666 6.1895 14.6593 5.96216 14.6266 5.2515C14.6159 4.69854 14.5113 4.15142 14.3173 3.6335ZM13.4273 10.6942C13.4233 11.1173 13.3464 11.5365 13.2 11.9335C13.0891 12.2215 12.9191 12.483 12.701 12.7011C12.4828 12.9193 12.2213 13.0893 11.9333 13.2002C11.5368 13.3468 11.1181 13.4244 10.6953 13.4295C9.99265 13.4615 9.78131 13.4682 8.00065 13.4682C6.21998 13.4682 6.00998 13.4615 5.30731 13.4295C4.88367 13.4247 4.46401 13.3471 4.06665 13.2002C3.77706 13.0933 3.51509 12.9229 3.29998 12.7015C3.07845 12.4865 2.90803 12.2245 2.80131 11.9348C2.65398 11.5385 2.57639 11.1196 2.57198 10.6968C2.54131 9.9915 2.53331 9.78083 2.53331 8.00016C2.53331 6.2195 2.53998 6.0095 2.57198 5.30616C2.57765 4.88286 2.6559 4.46367 2.80331 4.06683C2.91019 3.77724 3.08059 3.51527 3.30198 3.30016C3.51597 3.07804 3.77736 2.90712 4.06665 2.80016C4.46377 2.65351 4.88332 2.57682 5.30665 2.5735C6.00931 2.54083 6.22065 2.5335 7.99998 2.5335C9.77931 2.5335 9.99131 2.54083 10.6946 2.57283C11.1175 2.57729 11.5364 2.65418 11.9333 2.80016C12.2213 2.911 12.4828 3.081 12.701 3.29918C12.9191 3.51736 13.0891 3.77887 13.2 4.06683C13.3473 4.46316 13.4249 4.88202 13.4293 5.30483C13.46 6.0095 13.4666 6.22016 13.4666 8.00016C13.4666 9.78016 13.46 9.99083 13.4273 10.6942Z" fill="#141414"/>
</g>
</svg>
