<svg width="16" height="16" viewBox="0 0 16 16" fill="none" xmlns="http://www.w3.org/2000/svg">
<g id="brand/br-whatsapp">
<path id="Vector" d="M5.34401 8.18084C4.95673 7.68961 4.72132 7.09598 4.66668 6.47284C4.66207 6.2157 4.71109 5.96043 4.8106 5.72329C4.91012 5.48615 5.05795 5.27235 5.24468 5.09551C5.29991 5.03253 5.36756 4.98166 5.4434 4.9461C5.51924 4.91053 5.60161 4.89104 5.68534 4.88884C5.79534 4.88884 5.90534 4.88884 6.00201 4.89484C6.09868 4.90084 6.23934 4.85617 6.37334 5.17817C6.50734 5.50017 6.84001 6.32151 6.88268 6.40417C6.90885 6.44734 6.92378 6.49638 6.92611 6.54681C6.92844 6.59723 6.91809 6.64744 6.89601 6.69284C6.85456 6.79222 6.79911 6.88516 6.73134 6.96884C6.64868 7.06484 6.55734 7.18417 6.48334 7.2575C6.40934 7.33084 6.31468 7.42951 6.41068 7.59484C6.66005 8.01945 6.97098 8.40475 7.33334 8.73817C7.72515 9.08623 8.17451 9.36347 8.66134 9.55751C8.82667 9.64017 8.92334 9.62417 9.01934 9.51617C9.11534 9.40817 9.43201 9.03417 9.54201 8.86884C9.65201 8.70351 9.76268 8.7315 9.91401 8.78617C10.0653 8.84084 10.8773 9.24084 11.042 9.3235C11.2067 9.40617 11.3173 9.4475 11.3587 9.51617C11.4039 9.78171 11.3706 10.0547 11.2627 10.3015C11.141 10.5021 10.9791 10.6753 10.7873 10.8103C10.5955 10.9453 10.3778 11.0393 10.148 11.0862C9.80067 11.1454 9.44429 11.1226 9.10734 11.0195C8.78768 10.9204 8.47346 10.8044 8.16601 10.6722C7.02534 10.1003 6.05288 9.24181 5.34401 8.18084ZM1.36334 14.6668L2.30068 11.2428C1.57436 9.98246 1.28415 8.51767 1.47503 7.07557C1.66591 5.63347 2.32722 4.29463 3.35643 3.26662C4.38564 2.2386 5.72525 1.57885 7.16757 1.38965C8.60989 1.20045 10.0743 1.49236 11.3339 2.22014C12.5934 2.94791 13.5777 4.07089 14.134 5.41497C14.6904 6.75904 14.7878 8.24912 14.4111 9.65419C14.0345 11.0593 13.2048 12.3008 12.0507 13.1864C10.8967 14.0719 9.48268 14.552 8.02801 14.5522C6.92362 14.5524 5.83677 14.276 4.86668 13.7482L1.36334 14.6668ZM2.53334 7.94017C2.5317 8.97408 2.82269 9.98734 3.37268 10.8628L3.50601 11.0708L2.95134 13.0975L5.03068 12.5522L5.23068 12.6708C6.07712 13.1722 7.04289 13.4366 8.02668 13.4362C9.11304 13.4362 10.175 13.1141 11.0783 12.5106C11.9816 11.9071 12.6857 11.0493 13.1016 10.0457C13.5175 9.04204 13.6264 7.93765 13.4146 6.87212C13.2029 5.80659 12.68 4.82777 11.912 4.05941C11.144 3.29105 10.1654 2.76765 9.10001 2.55538C8.03458 2.34312 6.93014 2.45153 5.92631 2.8669C4.92249 3.28226 4.06437 3.98594 3.46043 4.88897C2.8565 5.79199 2.53387 6.85381 2.53334 7.94017Z" fill="#141414" fill-opacity="0.9"/>
</g>
</svg>
