<svg width="16" height="16" viewBox="0 0 16 16" fill="none" xmlns="http://www.w3.org/2000/svg">
<g id="interface/calling" clip-path="url(#clip0_929_1463)">
<path id="Vector" d="M6.46066 4.95812C6.62736 4.57622 6.67511 4.15296 6.59769 3.74352C6.52027 3.33408 6.32128 2.95747 6.02666 2.66279L4.63666 1.27279C4.40893 1.04234 4.12967 0.869327 3.82192 0.768019C3.51418 0.666712 3.18676 0.640013 2.86666 0.690123C2.54294 0.737664 2.23513 0.861388 1.96856 1.05112C1.70199 1.24085 1.48427 1.49116 1.33333 1.78146C0.660772 3.04684 0.487804 4.51862 0.848663 5.90546C1.73466 9.42546 6.572 14.2628 10.092 15.1488C10.5671 15.2693 11.0552 15.3306 11.5453 15.3315C12.4767 15.3309 13.3936 15.102 14.216 14.6648C14.5043 14.5144 14.7531 14.2984 14.9424 14.034C15.1318 13.7697 15.2562 13.4645 15.3057 13.1432C15.3552 12.8219 15.3285 12.4934 15.2275 12.1843C15.1266 11.8753 14.9543 11.5943 14.7247 11.3641L13.3373 9.97346C13.0424 9.67902 12.6657 9.48016 12.2562 9.40276C11.8467 9.32535 11.4234 9.37298 11.0413 9.53946C10.6769 9.69685 10.3445 9.91988 10.0607 10.1975C9.72 10.5381 8.46666 10.0441 7.21066 8.78946C5.95466 7.53479 5.462 6.28079 5.8 5.93946C6.07868 5.65575 6.30265 5.32307 6.46066 4.95812ZM6.26666 9.73346C7.796 11.2615 9.852 12.2908 11 11.1415C11.1692 10.9795 11.3664 10.8496 11.582 10.7581C11.7173 10.7004 11.8669 10.6848 12.0112 10.7132C12.1555 10.7416 12.288 10.8128 12.3913 10.9175L13.7813 12.3075C13.863 12.3882 13.9243 12.4872 13.9602 12.5962C13.9961 12.7053 14.0057 12.8213 13.988 12.9348C13.9708 13.0514 13.9261 13.1622 13.8576 13.2581C13.7891 13.3539 13.6987 13.4321 13.594 13.4861C12.6205 14.0092 11.4844 14.1418 10.4167 13.8568C7.39266 13.0935 2.90666 8.60746 2.14466 5.58012C1.85933 4.51156 1.99188 3.37442 2.51533 2.40012C2.56966 2.29589 2.64798 2.20605 2.74383 2.13801C2.83969 2.06998 2.95034 2.02568 3.06666 2.00879C3.10371 2.00292 3.14116 2.00002 3.17866 2.00012C3.27453 2.00014 3.36945 2.01919 3.45791 2.05615C3.54637 2.09311 3.62661 2.14726 3.694 2.21546L5.084 3.60546C5.18853 3.70876 5.25961 3.84109 5.28802 3.98529C5.31643 4.12948 5.30086 4.27889 5.24333 4.41412C5.15229 4.63116 5.02238 4.82975 4.86 5.00012C3.71066 6.14612 4.73933 8.20012 6.26666 9.73346ZM13.614 7.71546C13.9683 6.96959 14.0831 6.13235 13.9426 5.31866C13.8021 4.50497 13.4132 3.75469 12.8293 3.17081C12.2454 2.58693 11.4952 2.19805 10.6815 2.05756C9.86776 1.91707 9.03053 2.03184 8.28466 2.38612C8.20531 2.42613 8.11877 2.44987 8.03011 2.45594C7.94145 2.46201 7.85248 2.4503 7.76841 2.42149C7.68435 2.39268 7.60689 2.34736 7.5406 2.28818C7.4743 2.22901 7.42051 2.15718 7.38237 2.07691C7.34424 1.99664 7.32254 1.90957 7.31855 1.82079C7.31455 1.73202 7.32835 1.64334 7.35912 1.55998C7.38989 1.47661 7.43702 1.40024 7.49774 1.33535C7.55845 1.27046 7.63152 1.21836 7.71266 1.18212C8.707 0.709799 9.82314 0.556731 10.9079 0.743921C11.9927 0.931111 12.993 1.44939 13.7715 2.22764C14.5501 3.00589 15.0687 4.00598 15.2563 5.0907C15.4439 6.17541 15.2913 7.29161 14.8193 8.28612C14.741 8.44159 14.6049 8.56022 14.4402 8.61666C14.2755 8.67311 14.0952 8.66288 13.938 8.58817C13.7807 8.51346 13.6589 8.38019 13.5986 8.21686C13.5383 8.05353 13.5443 7.87309 13.6153 7.71412L13.614 7.71546ZM10.9413 6.94412C11.1913 6.69409 11.3317 6.35501 11.3317 6.00146C11.3317 5.6479 11.1913 5.30883 10.9413 5.05879C10.6874 4.81623 10.3498 4.68088 9.99866 4.68088C9.64752 4.68088 9.3099 4.81623 9.05599 5.05879C8.93026 5.18023 8.76186 5.24743 8.58706 5.24591C8.41226 5.24439 8.24506 5.17427 8.12145 5.05067C7.99784 4.92706 7.92773 4.75986 7.92621 4.58506C7.92469 4.41026 7.99189 4.24186 8.11333 4.11612C8.62105 3.63086 9.29634 3.36005 9.99866 3.36005C10.701 3.36005 11.3763 3.63086 11.884 4.11612C12.3839 4.6162 12.6648 5.29435 12.6648 6.00146C12.6648 6.70856 12.3839 7.38672 11.884 7.88679C11.7583 8.00823 11.5899 8.07542 11.4151 8.07391C11.2403 8.07239 11.0731 8.00227 10.9494 7.87867C10.8258 7.75506 10.7557 7.58785 10.7542 7.41306C10.7527 7.23826 10.8199 7.06986 10.9413 6.94412Z" fill="#141414" fill-opacity="0.9"/>
</g>
<defs>
<clipPath id="clip0_929_1463">
<rect width="16" height="16" fill="white"/>
</clipPath>
</defs>
</svg>
