<svg width="72" height="72" viewBox="0 0 72 72" fill="none" xmlns="http://www.w3.org/2000/svg">
<g id="Insurance">
<path d="M72 36C72 55.8823 55.8823 72 36 72C16.1177 72 0 55.8823 0 36C0 16.1177 16.1177 0 36 0C55.8823 0 72 16.1177 72 36Z" fill="#F4D3FC"/>
<path d="M29 46H43C43.7956 46 44.5587 45.6839 45.1213 45.1213C45.6839 44.5587 46 43.7956 46 43V33C46 32.2043 45.6839 31.4413 45.1213 30.8787C44.5587 30.3161 43.7956 30 43 30H41V28C41 27.4696 40.7893 26.9609 40.4142 26.5858C40.0391 26.2107 39.5304 26 39 26H33C32.4696 26 31.9609 26.2107 31.5858 26.5858C31.2107 26.9609 31 27.4696 31 28V30H29C28.2043 30 27.4413 30.3161 26.8787 30.8787C26.3161 31.4413 26 32.2043 26 33V43C26 43.7956 26.3161 44.5587 26.8787 45.1213C27.4413 45.6839 28.2043 46 29 46ZM33 28H39V30H33V28ZM28 33C28 32.7348 28.1054 32.4804 28.2929 32.2929C28.4804 32.1054 28.7348 32 29 32H43C43.2652 32 43.5196 32.1054 43.7071 32.2929C43.8946 32.4804 44 32.7348 44 33V43C44 43.2652 43.8946 43.5196 43.7071 43.7071C43.5196 43.8946 43.2652 44 43 44H29C28.7348 44 28.4804 43.8946 28.2929 43.7071C28.1054 43.5196 28 43.2652 28 43V33ZM30 36C30 35.7348 30.1054 35.4804 30.2929 35.2929C30.4804 35.1054 30.7348 35 31 35H41C41.2652 35 41.5196 35.1054 41.7071 35.2929C41.8946 35.4804 42 35.7348 42 36C42 36.2652 41.8946 36.5196 41.7071 36.7071C41.5196 36.8946 41.2652 37 41 37H31C30.7348 37 30.4804 36.8946 30.2929 36.7071C30.1054 36.5196 30 36.2652 30 36ZM30 40C30 39.7348 30.1054 39.4804 30.2929 39.2929C30.4804 39.1054 30.7348 39 31 39H41C41.2652 39 41.5196 39.1054 41.7071 39.2929C41.8946 39.4804 42 39.7348 42 40C42 40.2652 41.8946 40.5196 41.7071 40.7071C41.5196 40.8946 41.2652 41 41 41H31C30.7348 41 30.4804 40.8946 30.2929 40.7071C30.1054 40.5196 30 40.2652 30 40Z" fill="#712A68"/>
</g>
</svg>
