<svg width="16" height="16" viewBox="0 0 16 16" fill="none" xmlns="http://www.w3.org/2000/svg">
<g id="interface/mail">
<path id="Vector" d="M14.6667 2H1.33335C1.15654 2 0.986973 2.07024 0.861949 2.19526C0.736925 2.32029 0.666687 2.48986 0.666687 2.66667V13.3333C0.666687 13.5101 0.736925 13.6797 0.861949 13.8047C0.986973 13.9298 1.15654 14 1.33335 14H14.6667C14.8435 14 15.0131 13.9298 15.1381 13.8047C15.2631 13.6797 15.3334 13.5101 15.3334 13.3333V2.66667C15.3334 2.48986 15.2631 2.32029 15.1381 2.19526C15.0131 2.07024 14.8435 2 14.6667 2ZM14 12.6667H2.00002V3.33333H14V12.6667ZM2.75469 5C2.79835 4.9239 2.85661 4.85716 2.92612 4.80362C2.99563 4.75008 3.07503 4.71079 3.15975 4.68799C3.24448 4.6652 3.33288 4.65936 3.41987 4.6708C3.50686 4.68224 3.59073 4.71074 3.66669 4.75467L8.00002 7.232L12.3334 4.75467C12.4868 4.66626 12.6691 4.64244 12.8402 4.68845C13.0112 4.73446 13.1569 4.84653 13.2454 5C13.3338 5.15347 13.3576 5.33578 13.3116 5.50681C13.2656 5.67784 13.1535 5.82359 13 5.912L8.33335 8.57867C8.23264 8.63619 8.11867 8.66645 8.00269 8.66645C7.8867 8.66645 7.77273 8.63619 7.67202 8.57867L3.00535 5.912C2.9288 5.86878 2.86156 5.81085 2.80749 5.74154C2.75341 5.67223 2.71358 5.59291 2.69028 5.50815C2.66699 5.42339 2.66068 5.33485 2.67174 5.24764C2.68279 5.16043 2.71098 5.07627 2.75469 5ZM5.80469 8.85933C5.92967 8.98435 5.99988 9.15389 5.99988 9.33067C5.99988 9.50744 5.92967 9.67698 5.80469 9.802L4.47135 11.1353C4.34562 11.2568 4.17722 11.324 4.00242 11.3224C3.82762 11.3209 3.66041 11.2508 3.53681 11.1272C3.4132 11.0036 3.34309 10.8364 3.34157 10.6616C3.34005 10.4868 3.40725 10.3184 3.52869 10.1927L4.86202 8.85933C4.98739 8.73471 5.15713 8.66497 5.33391 8.66547C5.51068 8.66597 5.68002 8.73667 5.80469 8.862V8.85933ZM12.4714 10.1927C12.535 10.2542 12.5858 10.3277 12.6208 10.4091C12.6557 10.4904 12.6741 10.5779 12.6749 10.6664C12.6756 10.7549 12.6588 10.8427 12.6252 10.9246C12.5917 11.0066 12.5422 11.081 12.4796 11.1436C12.417 11.2062 12.3426 11.2557 12.2607 11.2892C12.1787 11.3227 12.0909 11.3396 12.0024 11.3388C11.9139 11.3381 11.8264 11.3197 11.7451 11.2847C11.6637 11.2498 11.5902 11.199 11.5287 11.1353L10.1954 9.802C10.0739 9.67627 10.0067 9.50786 10.0082 9.33307C10.0098 9.15827 10.0799 8.99106 10.2035 8.86745C10.3271 8.74385 10.4943 8.67374 10.6691 8.67222C10.8439 8.6707 11.0123 8.73789 11.138 8.85933L12.4714 10.1927Z" fill="#141414" fill-opacity="0.9"/>
</g>
</svg>
