<svg width="72" height="72" viewBox="0 0 72 72" fill="none" xmlns="http://www.w3.org/2000/svg">
<g id="Move">
<path d="M72 36C72 55.8823 55.8823 72 36 72C16.1177 72 0 55.8823 0 36C0 16.1177 16.1177 0 36 0C55.8823 0 72 16.1177 72 36Z" fill="#F4D3FC"/>
<path d="M43.8 29.4C43.7069 29.2758 43.5861 29.175 43.4472 29.1056C43.3084 29.0361 43.1552 29 43 29H39V28C39 27.4696 38.7893 26.9609 38.4142 26.5858C38.0391 26.2107 37.5304 26 37 26H27C26.4696 26 25.9609 26.2107 25.5858 26.5858C25.2107 26.9609 25 27.4696 25 28V41C25 41.2652 25.1054 41.5196 25.2929 41.7071C25.4804 41.8946 25.7348 42 26 42H27C27 43.0609 27.4214 44.0783 28.1716 44.8284C28.9217 45.5786 29.9391 46 31 46C32.0609 46 33.0783 45.5786 33.8284 44.8284C34.5786 44.0783 35 43.0609 35 42H37C37 43.0609 37.4214 44.0783 38.1716 44.8284C38.9217 45.5786 39.9391 46 41 46C42.0609 46 43.0783 45.5786 43.8284 44.8284C44.5786 44.0783 45 43.0609 45 42C45.5304 42 46.0391 41.7893 46.4142 41.4142C46.7893 41.0391 47 40.5304 47 40V34C47 33.7836 46.9298 33.5731 46.8 33.4L43.8 29.4ZM31 44C30.6044 44 30.2178 43.8827 29.8889 43.6629C29.56 43.4432 29.3036 43.1308 29.1522 42.7654C29.0009 42.3999 28.9613 41.9978 29.0384 41.6098C29.1156 41.2219 29.3061 40.8655 29.5858 40.5858C29.8655 40.3061 30.2219 40.1156 30.6098 40.0384C30.9978 39.9613 31.3999 40.0009 31.7654 40.1522C32.1308 40.3036 32.4432 40.56 32.6629 40.8889C32.8827 41.2178 33 41.6044 33 42C33 42.5304 32.7893 43.0391 32.4142 43.4142C32.0391 43.7893 31.5304 44 31 44ZM37 40H34.444C34.0974 39.3924 33.5962 38.8874 32.9914 38.5361C32.3865 38.1848 31.6995 37.9997 31 37.9997C30.3005 37.9997 29.6135 38.1848 29.0086 38.5361C28.4038 38.8874 27.9026 39.3924 27.556 40H27V34H37V40ZM37 32H27V28H37V32ZM41 44C40.6044 44 40.2178 43.8827 39.8889 43.6629C39.56 43.4432 39.3036 43.1308 39.1522 42.7654C39.0009 42.3999 38.9613 41.9978 39.0384 41.6098C39.1156 41.2219 39.3061 40.8655 39.5858 40.5858C39.8655 40.3061 40.2219 40.1156 40.6098 40.0384C40.9978 39.9613 41.3999 40.0009 41.7654 40.1522C42.1308 40.3036 42.4432 40.56 42.6629 40.8889C42.8827 41.2178 43 41.6044 43 42C43 42.5304 42.7893 43.0391 42.4142 43.4142C42.0391 43.7893 41.5304 44 41 44ZM45 40H44.444C44.1859 39.5431 43.839 39.1424 43.4238 38.8215C43.0086 38.5006 42.5333 38.266 42.0261 38.1315C41.5189 37.9969 40.9899 37.9652 40.4702 38.0381C39.9505 38.111 39.4506 38.2871 39 38.556V31H42.5L45 34.333V40Z" fill="#712A68"/>
</g>
</svg>
