<svg width="72" height="72" viewBox="0 0 72 72" fill="none" xmlns="http://www.w3.org/2000/svg">
<g id="package">
<path d="M72 36C72 55.8823 55.8823 72 36 72C16.1177 72 0 55.8823 0 36C0 16.1177 16.1177 0 36 0C55.8823 0 72 16.1177 72 36Z" fill="#F4D3FC"/>
<path d="M26.343 42.741C26.615 42.983 26.452 42.851 35.684 45.949C35.8891 46.0173 36.1109 46.0173 36.316 45.949C45 43 45.284 43.073 45.658 42.741C45.7743 42.6323 45.8666 42.5005 45.929 42.354C45.9739 42.2413 45.998 42.1213 46 42V30C45.998 29.8787 45.9739 29.7587 45.929 29.646C45.8666 29.4995 45.7743 29.3677 45.658 29.259C45.295 28.937 45.091 29.019 36.316 26.051C36.1109 25.9827 35.8891 25.9827 35.684 26.051C32.9 26.984 26.785 29 26.542 29.125C26.4699 29.161 26.4027 29.206 26.342 29.259C26.2256 29.3679 26.133 29.4996 26.07 29.646C26.0254 29.7588 26.0017 29.8787 26 30V42C26.002 42.1213 26.0261 42.2413 26.071 42.354C26.1338 42.5005 26.2265 42.6323 26.343 42.741ZM44 40.612L40.316 39.385C40.064 39.3012 39.7891 39.3209 39.5517 39.4398C39.3143 39.5587 39.1338 39.767 39.05 40.019C38.9662 40.271 38.9859 40.5459 39.1048 40.7833C39.2237 41.0207 39.432 41.2012 39.684 41.285L41.838 42L37 43.612V33.721L44 31.388V40.612ZM36 28.054L41.838 30L36 31.946L30.162 30L36 28.054ZM28 31.388L35 33.721V43.612L30.162 42L32.316 41.282C32.568 41.1982 32.7763 41.0177 32.8952 40.7803C33.0141 40.5429 33.0338 40.268 32.95 40.016C32.8662 39.764 32.6857 39.5557 32.4483 39.4368C32.2109 39.3179 31.936 39.2982 31.684 39.382L28 40.612V31.388Z" fill="#712A68"/>
</g>
</svg>
