<svg width="72" height="72" viewBox="0 0 72 72" fill="none" xmlns="http://www.w3.org/2000/svg">
<g id="Paint">
<path d="M72 36C72 55.8823 55.8823 72 36 72C16.1177 72 0 55.8823 0 36C0 16.1177 16.1177 0 36 0C55.8823 0 72 16.1177 72 36Z" fill="#F4D3FC"/>
<path d="M44 27H42.816C42.6099 26.4171 42.2288 25.9121 41.7247 25.5541C41.2206 25.1961 40.6183 25.0026 40 25H28C27.2043 25 26.4413 25.3161 25.8787 25.8787C25.3161 26.4413 25 27.2043 25 28C25 28.7957 25.3161 29.5587 25.8787 30.1213C26.4413 30.6839 27.2043 31 28 31H40C40.6183 30.9974 41.2206 30.8039 41.7247 30.4459C42.2288 30.0879 42.6099 29.5829 42.816 29H44C44.2652 29 44.5196 29.1054 44.7071 29.2929C44.8946 29.4804 45 29.7348 45 30V33C45 33.2652 44.8946 33.5196 44.7071 33.7071C44.5196 33.8946 44.2652 34 44 34H38C37.2043 34 36.4413 34.3161 35.8787 34.8787C35.3161 35.4413 35 36.2043 35 37H34C33.7348 37 33.4804 37.1054 33.2929 37.2929C33.1054 37.4804 33 37.7348 33 38V46C33 46.2652 33.1054 46.5196 33.2929 46.7071C33.4804 46.8946 33.7348 47 34 47H38C38.2652 47 38.5196 46.8946 38.7071 46.7071C38.8946 46.5196 39 46.2652 39 46V38C39 37.7348 38.8946 37.4804 38.7071 37.2929C38.5196 37.1054 38.2652 37 38 37H37C37 36.7348 37.1054 36.4804 37.2929 36.2929C37.4804 36.1054 37.7348 36 38 36H44C44.7956 36 45.5587 35.6839 46.1213 35.1213C46.6839 34.5587 47 33.7957 47 33V30C47 29.2043 46.6839 28.4413 46.1213 27.8787C45.5587 27.3161 44.7956 27 44 27ZM40 29H28C27.7348 29 27.4804 28.8946 27.2929 28.7071C27.1054 28.5196 27 28.2652 27 28C27 27.7348 27.1054 27.4804 27.2929 27.2929C27.4804 27.1054 27.7348 27 28 27H40C40.2652 27 40.5196 27.1054 40.7071 27.2929C40.8946 27.4804 41 27.7348 41 28C41 28.2652 40.8946 28.5196 40.7071 28.7071C40.5196 28.8946 40.2652 29 40 29ZM37 45H35V39H37V45ZM28.855 32.481C28.7593 32.3428 28.6315 32.2299 28.4826 32.1519C28.3337 32.0738 28.1681 32.0331 28 32.0331C27.8319 32.0331 27.6663 32.0738 27.5174 32.1519C27.3685 32.2299 27.2407 32.3428 27.145 32.481L25.47 35.246C25.1593 35.7646 24.9968 36.3585 25 36.963C24.9584 37.723 25.2188 38.4687 25.7246 39.0375C26.2303 39.6064 26.9403 39.9523 27.7 40H28.3C29.0597 39.9523 29.7697 39.6064 30.2754 39.0375C30.7812 38.4687 31.0416 37.723 31 36.963C31.0031 36.3586 30.8409 35.7649 30.531 35.246L28.855 32.481ZM28.3 38H27.7C27.37 38 27 37.574 27 36.963C27 36.352 27.312 36.163 28 34.93C28.685 36.153 29 36.341 29 36.963C29 37.585 28.632 38 28.3 38Z" fill="#712A68"/>
</g>
</svg>
