<svg width="672" height="140" viewBox="0 0 672 140" fill="none" xmlns="http://www.w3.org/2000/svg">
<g filter="url(#filter0_b_1_2)">
<rect width="672" height="140" rx="8" fill="#712A68" fill-opacity="0.8"/>
<path d="M64.457 51.8047C64.457 52.8906 64.1406 53.7969 63.5078 54.5234C62.875 55.2422 61.9844 55.7266 60.8359 55.9766V56.0703C62.2109 56.2422 63.2422 56.6719 63.9297 57.3594C64.6172 58.0391 64.9609 58.9453 64.9609 60.0781C64.9609 61.7266 64.3789 63 63.2148 63.8984C62.0508 64.7891 60.3945 65.2344 58.2461 65.2344C56.3477 65.2344 54.7461 64.9258 53.4414 64.3086V61.8594C54.168 62.2188 54.9375 62.4961 55.75 62.6914C56.5625 62.8867 57.3438 62.9844 58.0938 62.9844C59.4219 62.9844 60.4141 62.7383 61.0703 62.2461C61.7266 61.7539 62.0547 60.9922 62.0547 59.9609C62.0547 59.0469 61.6914 58.375 60.9648 57.9453C60.2383 57.5156 59.0977 57.3008 57.543 57.3008H56.0547V55.0625H57.5664C60.3008 55.0625 61.668 54.1172 61.668 52.2266C61.668 51.4922 61.4297 50.9258 60.9531 50.5273C60.4766 50.1289 59.7734 49.9297 58.8438 49.9297C58.1953 49.9297 57.5703 50.0234 56.9688 50.2109C56.3672 50.3906 55.6562 50.7461 54.8359 51.2773L53.4883 49.3555C55.0586 48.1992 56.8828 47.6211 58.9609 47.6211C60.6875 47.6211 62.0352 47.9922 63.0039 48.7344C63.9727 49.4766 64.457 50.5 64.457 51.8047ZM78.8125 56.4336C78.8125 59.4102 78.332 61.6211 77.3711 63.0664C76.418 64.5117 74.957 65.2344 72.9883 65.2344C71.082 65.2344 69.6367 64.4883 68.6523 62.9961C67.668 61.5039 67.1758 59.3164 67.1758 56.4336C67.1758 53.4102 67.6523 51.1836 68.6055 49.7539C69.5664 48.3164 71.0273 47.5977 72.9883 47.5977C74.9023 47.5977 76.3516 48.3477 77.3359 49.8477C78.3203 51.3477 78.8125 53.543 78.8125 56.4336ZM69.9648 56.4336C69.9648 58.7695 70.2031 60.4375 70.6797 61.4375C71.1641 62.4375 71.9336 62.9375 72.9883 62.9375C74.043 62.9375 74.8125 62.4297 75.2969 61.4141C75.7891 60.3984 76.0352 58.7383 76.0352 56.4336C76.0352 54.1367 75.7891 52.4766 75.2969 51.4531C74.8125 50.4219 74.043 49.9062 72.9883 49.9062C71.9336 49.9062 71.1641 50.4102 70.6797 51.418C70.2031 52.4258 69.9648 54.0977 69.9648 56.4336ZM85.6445 57.582H80.9805V55.4961H85.6445V50.7148H87.7539V55.4961H92.4297V57.582H87.7539V62.3398H85.6445V57.582Z" fill="white"/>
<path d="M41.9013 94V82.3636H43.3104V92.75H48.7195V94H41.9013ZM54.2649 94.1818C53.477 94.1818 52.7857 93.9943 52.1911 93.6193C51.6001 93.2443 51.138 92.7197 50.8047 92.0455C50.4751 91.3712 50.3104 90.5833 50.3104 89.6818C50.3104 88.7727 50.4751 87.9792 50.8047 87.3011C51.138 86.6231 51.6001 86.0966 52.1911 85.7216C52.7857 85.3466 53.477 85.1591 54.2649 85.1591C55.0528 85.1591 55.7422 85.3466 56.3331 85.7216C56.9278 86.0966 57.3899 86.6231 57.7195 87.3011C58.0528 87.9792 58.2195 88.7727 58.2195 89.6818C58.2195 90.5833 58.0528 91.3712 57.7195 92.0455C57.3899 92.7197 56.9278 93.2443 56.3331 93.6193C55.7422 93.9943 55.0528 94.1818 54.2649 94.1818ZM54.2649 92.9773C54.8634 92.9773 55.3558 92.8239 55.7422 92.517C56.1286 92.2102 56.4145 91.8068 56.6001 91.3068C56.7857 90.8068 56.8786 90.2652 56.8786 89.6818C56.8786 89.0985 56.7857 88.5549 56.6001 88.0511C56.4145 87.5473 56.1286 87.1402 55.7422 86.8295C55.3558 86.5189 54.8634 86.3636 54.2649 86.3636C53.6664 86.3636 53.174 86.5189 52.7876 86.8295C52.4013 87.1402 52.1153 87.5473 51.9297 88.0511C51.7441 88.5549 51.6513 89.0985 51.6513 89.6818C51.6513 90.2652 51.7441 90.8068 51.9297 91.3068C52.1153 91.8068 52.4013 92.2102 52.7876 92.517C53.174 92.8239 53.6664 92.9773 54.2649 92.9773ZM63.8118 94.1818C62.9936 94.1818 62.2891 93.9886 61.6982 93.6023C61.1072 93.2159 60.6527 92.6837 60.3345 92.0057C60.0163 91.3277 59.8572 90.553 59.8572 89.6818C59.8572 88.7955 60.0201 88.0133 60.3459 87.3352C60.6754 86.6534 61.1338 86.1212 61.7209 85.7386C62.3118 85.3523 63.0012 85.1591 63.7891 85.1591C64.4027 85.1591 64.9557 85.2727 65.4482 85.5C65.9406 85.7273 66.344 86.0455 66.6584 86.4545C66.9728 86.8636 67.1679 87.3409 67.2436 87.8864H65.9027C65.8004 87.4886 65.5732 87.1364 65.2209 86.8295C64.8724 86.5189 64.4027 86.3636 63.8118 86.3636C63.2891 86.3636 62.8307 86.5 62.4368 86.7727C62.0466 87.0417 61.7417 87.4223 61.522 87.9148C61.3061 88.4034 61.1982 88.9773 61.1982 89.6364C61.1982 90.3106 61.3042 90.8977 61.5163 91.3977C61.7322 91.8977 62.0353 92.286 62.4254 92.5625C62.8194 92.839 63.2815 92.9773 63.8118 92.9773C64.1603 92.9773 64.4766 92.9167 64.7607 92.7955C65.0447 92.6742 65.2853 92.5 65.4822 92.2727C65.6792 92.0455 65.8194 91.7727 65.9027 91.4545H67.2436C67.1679 91.9697 66.9804 92.4337 66.6811 92.8466C66.3857 93.2557 65.9936 93.5814 65.505 93.8239C65.0201 94.0625 64.4557 94.1818 63.8118 94.1818ZM71.772 94.2045C71.219 94.2045 70.7171 94.1004 70.2663 93.892C69.8156 93.6799 69.4576 93.375 69.1925 92.9773C68.9273 92.5758 68.7947 92.0909 68.7947 91.5227C68.7947 91.0227 68.8932 90.6174 69.0902 90.3068C69.2872 89.9924 69.5504 89.7462 69.88 89.5682C70.2095 89.3902 70.5732 89.2576 70.9709 89.1705C71.3724 89.0795 71.7758 89.0076 72.1811 88.9545C72.7114 88.8864 73.1413 88.8352 73.4709 88.8011C73.8042 88.7633 74.0466 88.7008 74.1982 88.6136C74.3535 88.5265 74.4311 88.375 74.4311 88.1591V88.1136C74.4311 87.553 74.2777 87.1174 73.9709 86.8068C73.6679 86.4962 73.2076 86.3409 72.5902 86.3409C71.95 86.3409 71.4482 86.4811 71.0845 86.7614C70.7209 87.0417 70.4652 87.3409 70.3175 87.6591L69.0447 87.2045C69.272 86.6742 69.575 86.2614 69.9538 85.9659C70.3364 85.6667 70.7531 85.4583 71.2038 85.3409C71.6584 85.2197 72.1054 85.1591 72.5447 85.1591C72.825 85.1591 73.147 85.1932 73.5107 85.2614C73.8781 85.3258 74.2322 85.4602 74.5732 85.6648C74.9179 85.8693 75.2038 86.178 75.4311 86.5909C75.6584 87.0038 75.772 87.5568 75.772 88.25V94H74.4311V92.8182H74.3629C74.272 93.0076 74.1205 93.2102 73.9084 93.4261C73.6963 93.642 73.4141 93.8258 73.0618 93.9773C72.7095 94.1288 72.2796 94.2045 71.772 94.2045ZM71.9766 93C72.5069 93 72.9538 92.8958 73.3175 92.6875C73.6849 92.4792 73.9614 92.2102 74.147 91.8807C74.3364 91.5511 74.4311 91.2045 74.4311 90.8409V89.6136C74.3743 89.6818 74.2493 89.7443 74.0561 89.8011C73.8667 89.8542 73.647 89.9015 73.397 89.9432C73.1508 89.9811 72.9103 90.0152 72.6754 90.0455C72.4444 90.072 72.2569 90.0947 72.1129 90.1136C71.7644 90.1591 71.4387 90.233 71.1357 90.3352C70.8364 90.4337 70.594 90.5833 70.4084 90.7841C70.2266 90.9811 70.1357 91.25 70.1357 91.5909C70.1357 92.0568 70.308 92.4091 70.6527 92.6477C71.0012 92.8826 71.4425 93 71.9766 93ZM82.0149 85.2727V86.4091H77.4922V85.2727H82.0149ZM78.8104 83.1818H80.1513V91.5C80.1513 91.8788 80.2062 92.1629 80.3161 92.3523C80.4297 92.5379 80.5736 92.6629 80.7479 92.7273C80.9259 92.7879 81.1134 92.8182 81.3104 92.8182C81.4581 92.8182 81.5793 92.8106 81.674 92.7955C81.7687 92.7765 81.8445 92.7614 81.9013 92.75L82.174 93.9545C82.0831 93.9886 81.9562 94.0227 81.7933 94.0568C81.6304 94.0947 81.424 94.1136 81.174 94.1136C80.7952 94.1136 80.424 94.0322 80.0604 93.8693C79.7005 93.7064 79.4013 93.4583 79.1626 93.125C78.9278 92.7917 78.8104 92.3712 78.8104 91.8636V83.1818ZM84.032 94V85.2727H85.3729V94H84.032ZM84.7138 83.8182C84.4524 83.8182 84.227 83.7292 84.0376 83.5511C83.852 83.3731 83.7592 83.1591 83.7592 82.9091C83.7592 82.6591 83.852 82.4451 84.0376 82.267C84.227 82.089 84.4524 82 84.7138 82C84.9751 82 85.1986 82.089 85.3842 82.267C85.5736 82.4451 85.6683 82.6591 85.6683 82.9091C85.6683 83.1591 85.5736 83.3731 85.3842 83.5511C85.1986 83.7292 84.9751 83.8182 84.7138 83.8182ZM91.3743 94.1818C90.5864 94.1818 89.8951 93.9943 89.3004 93.6193C88.7095 93.2443 88.2474 92.7197 87.9141 92.0455C87.5845 91.3712 87.4197 90.5833 87.4197 89.6818C87.4197 88.7727 87.5845 87.9792 87.9141 87.3011C88.2474 86.6231 88.7095 86.0966 89.3004 85.7216C89.8951 85.3466 90.5864 85.1591 91.3743 85.1591C92.1622 85.1591 92.8516 85.3466 93.4425 85.7216C94.0372 86.0966 94.4993 86.6231 94.8288 87.3011C95.1622 87.9792 95.3288 88.7727 95.3288 89.6818C95.3288 90.5833 95.1622 91.3712 94.8288 92.0455C94.4993 92.7197 94.0372 93.2443 93.4425 93.6193C92.8516 93.9943 92.1622 94.1818 91.3743 94.1818ZM91.3743 92.9773C91.9728 92.9773 92.4652 92.8239 92.8516 92.517C93.2379 92.2102 93.5239 91.8068 93.7095 91.3068C93.8951 90.8068 93.9879 90.2652 93.9879 89.6818C93.9879 89.0985 93.8951 88.5549 93.7095 88.0511C93.5239 87.5473 93.2379 87.1402 92.8516 86.8295C92.4652 86.5189 91.9728 86.3636 91.3743 86.3636C90.7758 86.3636 90.2834 86.5189 89.897 86.8295C89.5107 87.1402 89.2247 87.5473 89.0391 88.0511C88.8535 88.5549 88.7607 89.0985 88.7607 89.6818C88.7607 90.2652 88.8535 90.8068 89.0391 91.3068C89.2247 91.8068 89.5107 92.2102 89.897 92.517C90.2834 92.8239 90.7758 92.9773 91.3743 92.9773ZM98.7166 88.75V94H97.3757V85.2727H98.6712V86.6364H98.7848C98.9893 86.1932 99.3 85.8371 99.7166 85.5682C100.133 85.2955 100.671 85.1591 101.33 85.1591C101.921 85.1591 102.438 85.2803 102.881 85.5227C103.325 85.7614 103.669 86.125 103.915 86.6136C104.162 87.0985 104.285 87.7121 104.285 88.4545V94H102.944V88.5455C102.944 87.8598 102.766 87.3258 102.41 86.9432C102.054 86.5568 101.565 86.3636 100.944 86.3636C100.516 86.3636 100.133 86.4564 99.7962 86.642C99.4628 86.8277 99.1996 87.0985 99.0064 87.4545C98.8132 87.8106 98.7166 88.2424 98.7166 88.75Z" fill="white" fill-opacity="0.8"/>
<path d="M219.801 54.3008C221.527 54.3008 222.895 54.7578 223.902 55.6719C224.91 56.5859 225.414 57.832 225.414 59.4102C225.414 61.2383 224.84 62.668 223.691 63.6992C222.551 64.7227 220.926 65.2344 218.816 65.2344C216.902 65.2344 215.398 64.9258 214.305 64.3086V61.8125C214.938 62.1719 215.664 62.4492 216.484 62.6445C217.305 62.8398 218.066 62.9375 218.77 62.9375C220.012 62.9375 220.957 62.6602 221.605 62.1055C222.254 61.5508 222.578 60.7383 222.578 59.668C222.578 57.6211 221.273 56.5977 218.664 56.5977C218.297 56.5977 217.844 56.6367 217.305 56.7148C216.766 56.7852 216.293 56.8672 215.887 56.9609L214.656 56.2344L215.312 47.8672H224.219V50.3164H217.738L217.352 54.5586C217.625 54.5117 217.957 54.457 218.348 54.3945C218.746 54.332 219.23 54.3008 219.801 54.3008ZM239.312 56.4336C239.312 59.4102 238.832 61.6211 237.871 63.0664C236.918 64.5117 235.457 65.2344 233.488 65.2344C231.582 65.2344 230.137 64.4883 229.152 62.9961C228.168 61.5039 227.676 59.3164 227.676 56.4336C227.676 53.4102 228.152 51.1836 229.105 49.7539C230.066 48.3164 231.527 47.5977 233.488 47.5977C235.402 47.5977 236.852 48.3477 237.836 49.8477C238.82 51.3477 239.312 53.543 239.312 56.4336ZM230.465 56.4336C230.465 58.7695 230.703 60.4375 231.18 61.4375C231.664 62.4375 232.434 62.9375 233.488 62.9375C234.543 62.9375 235.312 62.4297 235.797 61.4141C236.289 60.3984 236.535 58.7383 236.535 56.4336C236.535 54.1367 236.289 52.4766 235.797 51.4531C235.312 50.4219 234.543 49.9062 233.488 49.9062C232.434 49.9062 231.664 50.4102 231.18 51.418C230.703 52.4258 230.465 54.0977 230.465 56.4336ZM246.145 57.582H241.48V55.4961H246.145V50.7148H248.254V55.4961H252.93V57.582H248.254V62.3398H246.145V57.582Z" fill="white"/>
<path d="M166.784 94V82.3636H170.716C171.629 82.3636 172.375 82.5284 172.955 82.858C173.538 83.1837 173.97 83.625 174.25 84.1818C174.53 84.7386 174.67 85.3598 174.67 86.0455C174.67 86.7311 174.53 87.3542 174.25 87.9148C173.973 88.4754 173.545 88.9223 172.966 89.2557C172.386 89.5852 171.644 89.75 170.739 89.75H167.92V88.5H170.693C171.318 88.5 171.82 88.392 172.199 88.1761C172.578 87.9602 172.852 87.6686 173.023 87.3011C173.197 86.9299 173.284 86.5114 173.284 86.0455C173.284 85.5795 173.197 85.1629 173.023 84.7955C172.852 84.428 172.576 84.1402 172.193 83.9318C171.811 83.7197 171.303 83.6136 170.67 83.6136H168.193V94H166.784ZM176.759 94V85.2727H178.054V86.5909H178.145C178.304 86.1591 178.592 85.8087 179.009 85.5398C179.425 85.2708 179.895 85.1364 180.418 85.1364C180.516 85.1364 180.639 85.1383 180.787 85.142C180.935 85.1458 181.046 85.1515 181.122 85.1591V86.5227C181.077 86.5114 180.973 86.4943 180.81 86.4716C180.651 86.4451 180.482 86.4318 180.304 86.4318C179.88 86.4318 179.501 86.5208 179.168 86.6989C178.838 86.8731 178.577 87.1155 178.384 87.4261C178.194 87.733 178.099 88.0833 178.099 88.4773V94H176.759ZM186.105 94.1818C185.264 94.1818 184.539 93.9962 183.929 93.625C183.323 93.25 182.855 92.7273 182.526 92.0568C182.2 91.3826 182.037 90.5985 182.037 89.7045C182.037 88.8106 182.2 88.0227 182.526 87.3409C182.855 86.6553 183.313 86.1212 183.901 85.7386C184.491 85.3523 185.181 85.1591 185.969 85.1591C186.423 85.1591 186.872 85.2348 187.315 85.3864C187.759 85.5379 188.162 85.7841 188.526 86.125C188.889 86.4621 189.179 86.9091 189.395 87.4659C189.611 88.0227 189.719 88.7083 189.719 89.5227V90.0909H182.991V88.9318H188.355C188.355 88.4394 188.257 88 188.06 87.6136C187.866 87.2273 187.59 86.9223 187.23 86.6989C186.874 86.4754 186.454 86.3636 185.969 86.3636C185.435 86.3636 184.973 86.4962 184.582 86.7614C184.196 87.0227 183.899 87.3636 183.69 87.7841C183.482 88.2045 183.378 88.6553 183.378 89.1364V89.9091C183.378 90.5682 183.491 91.1269 183.719 91.5852C183.95 92.0398 184.27 92.3864 184.679 92.625C185.088 92.8598 185.563 92.9773 186.105 92.9773C186.457 92.9773 186.776 92.928 187.06 92.8295C187.348 92.7273 187.596 92.5758 187.804 92.375C188.012 92.1705 188.173 91.9167 188.287 91.6136L189.582 91.9773C189.446 92.4167 189.217 92.803 188.895 93.1364C188.573 93.4659 188.175 93.7235 187.702 93.9091C187.228 94.0909 186.696 94.1818 186.105 94.1818ZM195.645 85.2727V86.4091H190.94V85.2727H195.645ZM192.349 94V84.0682C192.349 83.5682 192.467 83.1515 192.702 82.8182C192.937 82.4848 193.241 82.2348 193.616 82.0682C193.991 81.9015 194.387 81.8182 194.804 81.8182C195.134 81.8182 195.402 81.8447 195.611 81.8977C195.819 81.9508 195.974 82 196.077 82.0455L195.69 83.2045C195.622 83.1818 195.527 83.1534 195.406 83.1193C195.289 83.0852 195.134 83.0682 194.94 83.0682C194.497 83.0682 194.177 83.1799 193.98 83.4034C193.787 83.6269 193.69 83.9545 193.69 84.3864V94H192.349ZM200.824 94.1818C199.983 94.1818 199.258 93.9962 198.648 93.625C198.042 93.25 197.574 92.7273 197.244 92.0568C196.919 91.3826 196.756 90.5985 196.756 89.7045C196.756 88.8106 196.919 88.0227 197.244 87.3409C197.574 86.6553 198.032 86.1212 198.619 85.7386C199.21 85.3523 199.9 85.1591 200.688 85.1591C201.142 85.1591 201.591 85.2348 202.034 85.3864C202.477 85.5379 202.881 85.7841 203.244 86.125C203.608 86.4621 203.898 86.9091 204.114 87.4659C204.33 88.0227 204.438 88.7083 204.438 89.5227V90.0909H197.71V88.9318H203.074C203.074 88.4394 202.975 88 202.778 87.6136C202.585 87.2273 202.309 86.9223 201.949 86.6989C201.593 86.4754 201.172 86.3636 200.688 86.3636C200.153 86.3636 199.691 86.4962 199.301 86.7614C198.915 87.0227 198.617 87.3636 198.409 87.7841C198.201 88.2045 198.097 88.6553 198.097 89.1364V89.9091C198.097 90.5682 198.21 91.1269 198.438 91.5852C198.669 92.0398 198.989 92.3864 199.398 92.625C199.807 92.8598 200.282 92.9773 200.824 92.9773C201.176 92.9773 201.494 92.928 201.778 92.8295C202.066 92.7273 202.314 92.5758 202.523 92.375C202.731 92.1705 202.892 91.9167 203.006 91.6136L204.301 91.9773C204.165 92.4167 203.936 92.803 203.614 93.1364C203.292 93.4659 202.894 93.7235 202.42 93.9091C201.947 94.0909 201.415 94.1818 200.824 94.1818ZM212.659 87.2273L211.455 87.5682C211.379 87.3674 211.267 87.1723 211.119 86.983C210.975 86.7898 210.778 86.6307 210.528 86.5057C210.278 86.3807 209.958 86.3182 209.568 86.3182C209.034 86.3182 208.589 86.4413 208.233 86.6875C207.881 86.9299 207.705 87.2386 207.705 87.6136C207.705 87.947 207.826 88.2102 208.068 88.4034C208.311 88.5966 208.689 88.7576 209.205 88.8864L210.5 89.2045C211.28 89.3939 211.862 89.6837 212.244 90.0739C212.627 90.4602 212.818 90.9583 212.818 91.5682C212.818 92.0682 212.674 92.5152 212.386 92.9091C212.102 93.303 211.705 93.6136 211.193 93.8409C210.682 94.0682 210.087 94.1818 209.409 94.1818C208.519 94.1818 207.782 93.9886 207.199 93.6023C206.616 93.2159 206.246 92.6515 206.091 91.9091L207.364 91.5909C207.485 92.0606 207.714 92.4129 208.051 92.6477C208.392 92.8826 208.837 93 209.386 93C210.011 93 210.508 92.8674 210.875 92.6023C211.246 92.3333 211.432 92.0114 211.432 91.6364C211.432 91.3333 211.326 91.0795 211.114 90.875C210.902 90.6667 210.576 90.5114 210.136 90.4091L208.682 90.0682C207.883 89.8788 207.295 89.5852 206.92 89.1875C206.549 88.786 206.364 88.2841 206.364 87.6818C206.364 87.1894 206.502 86.7538 206.778 86.375C207.059 85.9962 207.439 85.6989 207.92 85.483C208.405 85.267 208.955 85.1591 209.568 85.1591C210.432 85.1591 211.11 85.3485 211.602 85.7273C212.098 86.1061 212.451 86.6061 212.659 87.2273ZM221.018 87.2273L219.814 87.5682C219.738 87.3674 219.626 87.1723 219.479 86.983C219.335 86.7898 219.138 86.6307 218.888 86.5057C218.638 86.3807 218.318 86.3182 217.928 86.3182C217.393 86.3182 216.948 86.4413 216.592 86.6875C216.24 86.9299 216.064 87.2386 216.064 87.6136C216.064 87.947 216.185 88.2102 216.428 88.4034C216.67 88.5966 217.049 88.7576 217.564 88.8864L218.859 89.2045C219.64 89.3939 220.221 89.6837 220.604 90.0739C220.986 90.4602 221.178 90.9583 221.178 91.5682C221.178 92.0682 221.034 92.5152 220.746 92.9091C220.462 93.303 220.064 93.6136 219.553 93.8409C219.041 94.0682 218.446 94.1818 217.768 94.1818C216.878 94.1818 216.142 93.9886 215.558 93.6023C214.975 93.2159 214.606 92.6515 214.45 91.9091L215.723 91.5909C215.844 92.0606 216.073 92.4129 216.411 92.6477C216.751 92.8826 217.196 93 217.746 93C218.371 93 218.867 92.8674 219.234 92.6023C219.606 92.3333 219.791 92.0114 219.791 91.6364C219.791 91.3333 219.685 91.0795 219.473 90.875C219.261 90.6667 218.935 90.5114 218.496 90.4091L217.041 90.0682C216.242 89.8788 215.655 89.5852 215.28 89.1875C214.909 88.786 214.723 88.2841 214.723 87.6818C214.723 87.1894 214.861 86.7538 215.138 86.375C215.418 85.9962 215.799 85.6989 216.28 85.483C216.765 85.267 217.314 85.1591 217.928 85.1591C218.791 85.1591 219.469 85.3485 219.962 85.7273C220.458 86.1061 220.81 86.6061 221.018 87.2273ZM223.196 94V85.2727H224.537V94H223.196ZM223.878 83.8182C223.616 83.8182 223.391 83.7292 223.202 83.5511C223.016 83.3731 222.923 83.1591 222.923 82.9091C222.923 82.6591 223.016 82.4451 223.202 82.267C223.391 82.089 223.616 82 223.878 82C224.139 82 224.363 82.089 224.548 82.267C224.738 82.4451 224.832 82.6591 224.832 82.9091C224.832 83.1591 224.738 83.3731 224.548 83.5511C224.363 83.7292 224.139 83.8182 223.878 83.8182ZM230.538 94.1818C229.75 94.1818 229.059 93.9943 228.464 93.6193C227.874 93.2443 227.411 92.7197 227.078 92.0455C226.749 91.3712 226.584 90.5833 226.584 89.6818C226.584 88.7727 226.749 87.9792 227.078 87.3011C227.411 86.6231 227.874 86.0966 228.464 85.7216C229.059 85.3466 229.75 85.1591 230.538 85.1591C231.326 85.1591 232.016 85.3466 232.607 85.7216C233.201 86.0966 233.663 86.6231 233.993 87.3011C234.326 87.9792 234.493 88.7727 234.493 89.6818C234.493 90.5833 234.326 91.3712 233.993 92.0455C233.663 92.7197 233.201 93.2443 232.607 93.6193C232.016 93.9943 231.326 94.1818 230.538 94.1818ZM230.538 92.9773C231.137 92.9773 231.629 92.8239 232.016 92.517C232.402 92.2102 232.688 91.8068 232.874 91.3068C233.059 90.8068 233.152 90.2652 233.152 89.6818C233.152 89.0985 233.059 88.5549 232.874 88.0511C232.688 87.5473 232.402 87.1402 232.016 86.8295C231.629 86.5189 231.137 86.3636 230.538 86.3636C229.94 86.3636 229.447 86.5189 229.061 86.8295C228.675 87.1402 228.389 87.5473 228.203 88.0511C228.018 88.5549 227.925 89.0985 227.925 89.6818C227.925 90.2652 228.018 90.8068 228.203 91.3068C228.389 91.8068 228.675 92.2102 229.061 92.517C229.447 92.8239 229.94 92.9773 230.538 92.9773ZM237.881 88.75V94H236.54V85.2727H237.835V86.6364H237.949C238.153 86.1932 238.464 85.8371 238.881 85.5682C239.297 85.2955 239.835 85.1591 240.494 85.1591C241.085 85.1591 241.602 85.2803 242.045 85.5227C242.489 85.7614 242.833 86.125 243.08 86.6136C243.326 87.0985 243.449 87.7121 243.449 88.4545V94H242.108V88.5455C242.108 87.8598 241.93 87.3258 241.574 86.9432C241.218 86.5568 240.729 86.3636 240.108 86.3636C239.68 86.3636 239.297 86.4564 238.96 86.642C238.627 86.8277 238.364 87.0985 238.17 87.4545C237.977 87.8106 237.881 88.2424 237.881 88.75ZM248.467 94.2045C247.914 94.2045 247.412 94.1004 246.962 93.892C246.511 93.6799 246.153 93.375 245.888 92.9773C245.623 92.5758 245.49 92.0909 245.49 91.5227C245.49 91.0227 245.589 90.6174 245.786 90.3068C245.982 89.9924 246.246 89.7462 246.575 89.5682C246.905 89.3902 247.268 89.2576 247.666 89.1705C248.068 89.0795 248.471 89.0076 248.876 88.9545C249.407 88.8864 249.837 88.8352 250.166 88.8011C250.5 88.7633 250.742 88.7008 250.893 88.6136C251.049 88.5265 251.126 88.375 251.126 88.1591V88.1136C251.126 87.553 250.973 87.1174 250.666 86.8068C250.363 86.4962 249.903 86.3409 249.286 86.3409C248.645 86.3409 248.143 86.4811 247.78 86.7614C247.416 87.0417 247.161 87.3409 247.013 87.6591L245.74 87.2045C245.967 86.6742 246.27 86.2614 246.649 85.9659C247.032 85.6667 247.448 85.4583 247.899 85.3409C248.354 85.2197 248.801 85.1591 249.24 85.1591C249.52 85.1591 249.842 85.1932 250.206 85.2614C250.573 85.3258 250.928 85.4602 251.268 85.6648C251.613 85.8693 251.899 86.178 252.126 86.5909C252.354 87.0038 252.467 87.5568 252.467 88.25V94H251.126V92.8182H251.058C250.967 93.0076 250.816 93.2102 250.604 93.4261C250.392 93.642 250.109 93.8258 249.757 93.9773C249.405 94.1288 248.975 94.2045 248.467 94.2045ZM248.672 93C249.202 93 249.649 92.8958 250.013 92.6875C250.38 92.4792 250.657 92.2102 250.842 91.8807C251.032 91.5511 251.126 91.2045 251.126 90.8409V89.6136C251.07 89.6818 250.945 89.7443 250.751 89.8011C250.562 89.8542 250.342 89.9015 250.092 89.9432C249.846 89.9811 249.606 90.0152 249.371 90.0455C249.14 90.072 248.952 90.0947 248.808 90.1136C248.46 90.1591 248.134 90.233 247.831 90.3352C247.532 90.4337 247.289 90.5833 247.104 90.7841C246.922 90.9811 246.831 91.25 246.831 91.5909C246.831 92.0568 247.003 92.4091 247.348 92.6477C247.696 92.8826 248.138 93 248.672 93ZM256.256 82.3636V94H254.915V82.3636H256.256ZM272.757 86H271.348C271.265 85.5947 271.119 85.2386 270.911 84.9318C270.706 84.625 270.456 84.3674 270.161 84.1591C269.869 83.947 269.545 83.7879 269.189 83.6818C268.833 83.5758 268.462 83.5227 268.075 83.5227C267.371 83.5227 266.732 83.7008 266.161 84.0568C265.592 84.4129 265.14 84.9375 264.803 85.6307C264.469 86.3239 264.303 87.1742 264.303 88.1818C264.303 89.1894 264.469 90.0398 264.803 90.733C265.14 91.4261 265.592 91.9508 266.161 92.3068C266.732 92.6629 267.371 92.8409 268.075 92.8409C268.462 92.8409 268.833 92.7879 269.189 92.6818C269.545 92.5758 269.869 92.4186 270.161 92.2102C270.456 91.9981 270.706 91.7386 270.911 91.4318C271.119 91.1212 271.265 90.7652 271.348 90.3636H272.757C272.651 90.9583 272.458 91.4905 272.178 91.9602C271.897 92.4299 271.549 92.8295 271.132 93.1591C270.715 93.4848 270.248 93.733 269.729 93.9034C269.214 94.0739 268.662 94.1591 268.075 94.1591C267.083 94.1591 266.2 93.9167 265.428 93.4318C264.655 92.947 264.047 92.2576 263.604 91.3636C263.161 90.4697 262.939 89.4091 262.939 88.1818C262.939 86.9545 263.161 85.8939 263.604 85C264.047 84.1061 264.655 83.4167 265.428 82.9318C266.2 82.447 267.083 82.2045 268.075 82.2045C268.662 82.2045 269.214 82.2898 269.729 82.4602C270.248 82.6307 270.715 82.8807 271.132 83.2102C271.549 83.536 271.897 83.9337 272.178 84.4034C272.458 84.8693 272.651 85.4015 272.757 86ZM274.852 94V85.2727H276.148V86.5909H276.239C276.398 86.1591 276.686 85.8087 277.102 85.5398C277.519 85.2708 277.989 85.1364 278.511 85.1364C278.61 85.1364 278.733 85.1383 278.881 85.142C279.028 85.1458 279.14 85.1515 279.216 85.1591V86.5227C279.17 86.5114 279.066 86.4943 278.903 86.4716C278.744 86.4451 278.576 86.4318 278.398 86.4318C277.973 86.4318 277.595 86.5208 277.261 86.6989C276.932 86.8731 276.67 87.1155 276.477 87.4261C276.288 87.733 276.193 88.0833 276.193 88.4773V94H274.852ZM284.199 94.1818C283.358 94.1818 282.633 93.9962 282.023 93.625C281.417 93.25 280.949 92.7273 280.619 92.0568C280.294 91.3826 280.131 90.5985 280.131 89.7045C280.131 88.8106 280.294 88.0227 280.619 87.3409C280.949 86.6553 281.407 86.1212 281.994 85.7386C282.585 85.3523 283.275 85.1591 284.062 85.1591C284.517 85.1591 284.966 85.2348 285.409 85.3864C285.852 85.5379 286.256 85.7841 286.619 86.125C286.983 86.4621 287.273 86.9091 287.489 87.4659C287.705 88.0227 287.812 88.7083 287.812 89.5227V90.0909H281.085V88.9318H286.449C286.449 88.4394 286.35 88 286.153 87.6136C285.96 87.2273 285.684 86.9223 285.324 86.6989C284.968 86.4754 284.547 86.3636 284.062 86.3636C283.528 86.3636 283.066 86.4962 282.676 86.7614C282.29 87.0227 281.992 87.3636 281.784 87.7841C281.576 88.2045 281.472 88.6553 281.472 89.1364V89.9091C281.472 90.5682 281.585 91.1269 281.812 91.5852C282.044 92.0398 282.364 92.3864 282.773 92.625C283.182 92.8598 283.657 92.9773 284.199 92.9773C284.551 92.9773 284.869 92.928 285.153 92.8295C285.441 92.7273 285.689 92.5758 285.898 92.375C286.106 92.1705 286.267 91.9167 286.381 91.6136L287.676 91.9773C287.54 92.4167 287.311 92.803 286.989 93.1364C286.667 93.4659 286.269 93.7235 285.795 93.9091C285.322 94.0909 284.79 94.1818 284.199 94.1818ZM291.83 94L289.17 85.2727H290.58L292.466 91.9545H292.557L294.42 85.2727H295.852L297.693 91.9318H297.784L299.67 85.2727H301.08L298.42 94H297.102L295.193 87.2955H295.057L293.148 94H291.83Z" fill="white" fill-opacity="0.8"/>
<path d="M399.246 65H387.633V62.9141L392.051 58.4727C393.355 57.1367 394.219 56.1914 394.641 55.6367C395.07 55.0742 395.383 54.5469 395.578 54.0547C395.773 53.5625 395.871 53.0352 395.871 52.4727C395.871 51.6992 395.637 51.0898 395.168 50.6445C394.707 50.1992 394.066 49.9766 393.246 49.9766C392.59 49.9766 391.953 50.0977 391.336 50.3398C390.727 50.582 390.02 51.0195 389.215 51.6523L387.727 49.8359C388.68 49.0312 389.605 48.4609 390.504 48.125C391.402 47.7891 392.359 47.6211 393.375 47.6211C394.969 47.6211 396.246 48.0391 397.207 48.875C398.168 49.7031 398.648 50.8203 398.648 52.2266C398.648 53 398.508 53.7344 398.227 54.4297C397.953 55.125 397.527 55.8438 396.949 56.5859C396.379 57.3203 395.426 58.3164 394.09 59.5742L391.113 62.457V62.5742H399.246V65ZM407.156 54.3008C408.883 54.3008 410.25 54.7578 411.258 55.6719C412.266 56.5859 412.77 57.832 412.77 59.4102C412.77 61.2383 412.195 62.668 411.047 63.6992C409.906 64.7227 408.281 65.2344 406.172 65.2344C404.258 65.2344 402.754 64.9258 401.66 64.3086V61.8125C402.293 62.1719 403.02 62.4492 403.84 62.6445C404.66 62.8398 405.422 62.9375 406.125 62.9375C407.367 62.9375 408.312 62.6602 408.961 62.1055C409.609 61.5508 409.934 60.7383 409.934 59.668C409.934 57.6211 408.629 56.5977 406.02 56.5977C405.652 56.5977 405.199 56.6367 404.66 56.7148C404.121 56.7852 403.648 56.8672 403.242 56.9609L402.012 56.2344L402.668 47.8672H411.574V50.3164H405.094L404.707 54.5586C404.98 54.5117 405.312 54.457 405.703 54.3945C406.102 54.332 406.586 54.3008 407.156 54.3008ZM426.668 56.4336C426.668 59.4102 426.188 61.6211 425.227 63.0664C424.273 64.5117 422.812 65.2344 420.844 65.2344C418.938 65.2344 417.492 64.4883 416.508 62.9961C415.523 61.5039 415.031 59.3164 415.031 56.4336C415.031 53.4102 415.508 51.1836 416.461 49.7539C417.422 48.3164 418.883 47.5977 420.844 47.5977C422.758 47.5977 424.207 48.3477 425.191 49.8477C426.176 51.3477 426.668 53.543 426.668 56.4336ZM417.82 56.4336C417.82 58.7695 418.059 60.4375 418.535 61.4375C419.02 62.4375 419.789 62.9375 420.844 62.9375C421.898 62.9375 422.668 62.4297 423.152 61.4141C423.645 60.3984 423.891 58.7383 423.891 56.4336C423.891 54.1367 423.645 52.4766 423.152 51.4531C422.668 50.4219 421.898 49.9062 420.844 49.9062C419.789 49.9062 419.02 50.4102 418.535 51.418C418.059 52.4258 417.82 54.0977 417.82 56.4336ZM440.379 56.4336C440.379 59.4102 439.898 61.6211 438.938 63.0664C437.984 64.5117 436.523 65.2344 434.555 65.2344C432.648 65.2344 431.203 64.4883 430.219 62.9961C429.234 61.5039 428.742 59.3164 428.742 56.4336C428.742 53.4102 429.219 51.1836 430.172 49.7539C431.133 48.3164 432.594 47.5977 434.555 47.5977C436.469 47.5977 437.918 48.3477 438.902 49.8477C439.887 51.3477 440.379 53.543 440.379 56.4336ZM431.531 56.4336C431.531 58.7695 431.77 60.4375 432.246 61.4375C432.73 62.4375 433.5 62.9375 434.555 62.9375C435.609 62.9375 436.379 62.4297 436.863 61.4141C437.355 60.3984 437.602 58.7383 437.602 56.4336C437.602 54.1367 437.355 52.4766 436.863 51.4531C436.379 50.4219 435.609 49.9062 434.555 49.9062C433.5 49.9062 432.73 50.4102 432.246 51.418C431.77 52.4258 431.531 54.0977 431.531 56.4336Z" fill="white"/>
<path d="M362.722 94V82.3636H364.131V87.5455H370.335V82.3636H371.744V94H370.335V88.7955H364.131V94H362.722ZM376.952 94.2045C376.399 94.2045 375.897 94.1004 375.446 93.892C374.995 93.6799 374.637 93.375 374.372 92.9773C374.107 92.5758 373.974 92.0909 373.974 91.5227C373.974 91.0227 374.073 90.6174 374.27 90.3068C374.467 89.9924 374.73 89.7462 375.06 89.5682C375.389 89.3902 375.753 89.2576 376.151 89.1705C376.552 89.0795 376.955 89.0076 377.361 88.9545C377.891 88.8864 378.321 88.8352 378.651 88.8011C378.984 88.7633 379.226 88.7008 379.378 88.6136C379.533 88.5265 379.611 88.375 379.611 88.1591V88.1136C379.611 87.553 379.457 87.1174 379.151 86.8068C378.848 86.4962 378.387 86.3409 377.77 86.3409C377.13 86.3409 376.628 86.4811 376.264 86.7614C375.901 87.0417 375.645 87.3409 375.497 87.6591L374.224 87.2045C374.452 86.6742 374.755 86.2614 375.134 85.9659C375.516 85.6667 375.933 85.4583 376.384 85.3409C376.838 85.2197 377.285 85.1591 377.724 85.1591C378.005 85.1591 378.327 85.1932 378.69 85.2614C379.058 85.3258 379.412 85.4602 379.753 85.6648C380.098 85.8693 380.384 86.178 380.611 86.5909C380.838 87.0038 380.952 87.5568 380.952 88.25V94H379.611V92.8182H379.543C379.452 93.0076 379.3 93.2102 379.088 93.4261C378.876 93.642 378.594 93.8258 378.241 93.9773C377.889 94.1288 377.459 94.2045 376.952 94.2045ZM377.156 93C377.687 93 378.134 92.8958 378.497 92.6875C378.865 92.4792 379.141 92.2102 379.327 91.8807C379.516 91.5511 379.611 91.2045 379.611 90.8409V89.6136C379.554 89.6818 379.429 89.7443 379.236 89.8011C379.046 89.8542 378.827 89.9015 378.577 89.9432C378.33 89.9811 378.09 90.0152 377.855 90.0455C377.624 90.072 377.437 90.0947 377.293 90.1136C376.944 90.1591 376.618 90.233 376.315 90.3352C376.016 90.4337 375.774 90.5833 375.588 90.7841C375.406 90.9811 375.315 91.25 375.315 91.5909C375.315 92.0568 375.488 92.4091 375.832 92.6477C376.181 92.8826 376.622 93 377.156 93ZM383.399 97.2727V85.2727H384.695V86.6591H384.854C384.952 86.5076 385.089 86.3144 385.263 86.0795C385.441 85.8409 385.695 85.6288 386.024 85.4432C386.357 85.2538 386.808 85.1591 387.376 85.1591C388.111 85.1591 388.759 85.3428 389.32 85.7102C389.88 86.0777 390.318 86.5985 390.632 87.2727C390.946 87.947 391.104 88.7424 391.104 89.6591C391.104 90.5833 390.946 91.3845 390.632 92.0625C390.318 92.7367 389.882 93.2595 389.325 93.6307C388.768 93.9981 388.126 94.1818 387.399 94.1818C386.839 94.1818 386.39 94.089 386.053 93.9034C385.715 93.714 385.456 93.5 385.274 93.2614C385.092 93.0189 384.952 92.8182 384.854 92.6591H384.74V97.2727H383.399ZM384.717 89.6364C384.717 90.2955 384.814 90.8769 385.007 91.3807C385.2 91.8807 385.482 92.2727 385.854 92.5568C386.225 92.8371 386.679 92.9773 387.217 92.9773C387.778 92.9773 388.246 92.8295 388.621 92.5341C389 92.2348 389.284 91.8333 389.473 91.3295C389.666 90.822 389.763 90.2576 389.763 89.6364C389.763 89.0227 389.668 88.4697 389.479 87.9773C389.293 87.4811 389.011 87.089 388.632 86.8011C388.257 86.5095 387.786 86.3636 387.217 86.3636C386.672 86.3636 386.214 86.5019 385.842 86.7784C385.471 87.0511 385.191 87.4337 385.001 87.9261C384.812 88.4148 384.717 88.9848 384.717 89.6364ZM393.149 97.2727V85.2727H394.445V86.6591H394.604C394.702 86.5076 394.839 86.3144 395.013 86.0795C395.191 85.8409 395.445 85.6288 395.774 85.4432C396.107 85.2538 396.558 85.1591 397.126 85.1591C397.861 85.1591 398.509 85.3428 399.07 85.7102C399.63 86.0777 400.068 86.5985 400.382 87.2727C400.696 87.947 400.854 88.7424 400.854 89.6591C400.854 90.5833 400.696 91.3845 400.382 92.0625C400.068 92.7367 399.632 93.2595 399.075 93.6307C398.518 93.9981 397.876 94.1818 397.149 94.1818C396.589 94.1818 396.14 94.089 395.803 93.9034C395.465 93.714 395.206 93.5 395.024 93.2614C394.842 93.0189 394.702 92.8182 394.604 92.6591H394.49V97.2727H393.149ZM394.467 89.6364C394.467 90.2955 394.564 90.8769 394.757 91.3807C394.95 91.8807 395.232 92.2727 395.604 92.5568C395.975 92.8371 396.429 92.9773 396.967 92.9773C397.528 92.9773 397.996 92.8295 398.371 92.5341C398.75 92.2348 399.034 91.8333 399.223 91.3295C399.416 90.822 399.513 90.2576 399.513 89.6364C399.513 89.0227 399.418 88.4697 399.229 87.9773C399.043 87.4811 398.761 87.089 398.382 86.8011C398.007 86.5095 397.536 86.3636 396.967 86.3636C396.422 86.3636 395.964 86.5019 395.592 86.7784C395.221 87.0511 394.941 87.4337 394.751 87.9261C394.562 88.4148 394.467 88.9848 394.467 89.6364ZM403.45 97.2727C403.223 97.2727 403.02 97.2538 402.842 97.2159C402.664 97.1818 402.541 97.1477 402.473 97.1136L402.814 95.9318C403.14 96.0152 403.428 96.0455 403.678 96.0227C403.928 96 404.149 95.8883 404.342 95.6875C404.539 95.4905 404.719 95.1705 404.882 94.7273L405.132 94.0455L401.905 85.2727H403.359L405.768 92.2273H405.859L408.268 85.2727H409.723L406.018 95.2727C405.852 95.7235 405.645 96.0966 405.399 96.392C405.153 96.6913 404.867 96.9129 404.541 97.0568C404.219 97.2008 403.856 97.2727 403.45 97.2727ZM425.538 86H424.129C424.046 85.5947 423.9 85.2386 423.692 84.9318C423.487 84.625 423.237 84.3674 422.942 84.1591C422.65 83.947 422.326 83.7879 421.97 83.6818C421.614 83.5758 421.243 83.5227 420.857 83.5227C420.152 83.5227 419.514 83.7008 418.942 84.0568C418.374 84.4129 417.921 84.9375 417.584 85.6307C417.25 86.3239 417.084 87.1742 417.084 88.1818C417.084 89.1894 417.25 90.0398 417.584 90.733C417.921 91.4261 418.374 91.9508 418.942 92.3068C419.514 92.6629 420.152 92.8409 420.857 92.8409C421.243 92.8409 421.614 92.7879 421.97 92.6818C422.326 92.5758 422.65 92.4186 422.942 92.2102C423.237 91.9981 423.487 91.7386 423.692 91.4318C423.9 91.1212 424.046 90.7652 424.129 90.3636H425.538C425.432 90.9583 425.239 91.4905 424.959 91.9602C424.679 92.4299 424.33 92.8295 423.913 93.1591C423.497 93.4848 423.029 93.733 422.51 93.9034C421.995 94.0739 421.444 94.1591 420.857 94.1591C419.864 94.1591 418.982 93.9167 418.209 93.4318C417.436 92.947 416.828 92.2576 416.385 91.3636C415.942 90.4697 415.72 89.4091 415.72 88.1818C415.72 86.9545 415.942 85.8939 416.385 85C416.828 84.1061 417.436 83.4167 418.209 82.9318C418.982 82.447 419.864 82.2045 420.857 82.2045C421.444 82.2045 421.995 82.2898 422.51 82.4602C423.029 82.6307 423.497 82.8807 423.913 83.2102C424.33 83.536 424.679 83.9337 424.959 84.4034C425.239 84.8693 425.432 85.4015 425.538 86ZM428.974 82.3636V94H427.634V82.3636H428.974ZM431.43 94V85.2727H432.771V94H431.43ZM432.112 83.8182C431.851 83.8182 431.625 83.7292 431.436 83.5511C431.25 83.3731 431.158 83.1591 431.158 82.9091C431.158 82.6591 431.25 82.4451 431.436 82.267C431.625 82.089 431.851 82 432.112 82C432.374 82 432.597 82.089 432.783 82.267C432.972 82.4451 433.067 82.6591 433.067 82.9091C433.067 83.1591 432.972 83.3731 432.783 83.5511C432.597 83.7292 432.374 83.8182 432.112 83.8182ZM438.886 94.1818C438.045 94.1818 437.32 93.9962 436.71 93.625C436.104 93.25 435.636 92.7273 435.307 92.0568C434.981 91.3826 434.818 90.5985 434.818 89.7045C434.818 88.8106 434.981 88.0227 435.307 87.3409C435.636 86.6553 436.095 86.1212 436.682 85.7386C437.273 85.3523 437.962 85.1591 438.75 85.1591C439.205 85.1591 439.653 85.2348 440.097 85.3864C440.54 85.5379 440.943 85.7841 441.307 86.125C441.67 86.4621 441.96 86.9091 442.176 87.4659C442.392 88.0227 442.5 88.7083 442.5 89.5227V90.0909H435.773V88.9318H441.136C441.136 88.4394 441.038 88 440.841 87.6136C440.648 87.2273 440.371 86.9223 440.011 86.6989C439.655 86.4754 439.235 86.3636 438.75 86.3636C438.216 86.3636 437.754 86.4962 437.364 86.7614C436.977 87.0227 436.68 87.3636 436.472 87.7841C436.263 88.2045 436.159 88.6553 436.159 89.1364V89.9091C436.159 90.5682 436.273 91.1269 436.5 91.5852C436.731 92.0398 437.051 92.3864 437.46 92.625C437.869 92.8598 438.345 92.9773 438.886 92.9773C439.239 92.9773 439.557 92.928 439.841 92.8295C440.129 92.7273 440.377 92.5758 440.585 92.375C440.794 92.1705 440.955 91.9167 441.068 91.6136L442.364 91.9773C442.227 92.4167 441.998 92.803 441.676 93.1364C441.354 93.4659 440.956 93.7235 440.483 93.9091C440.009 94.0909 439.477 94.1818 438.886 94.1818ZM445.881 88.75V94H444.54V85.2727H445.835V86.6364H445.949C446.153 86.1932 446.464 85.8371 446.881 85.5682C447.297 85.2955 447.835 85.1591 448.494 85.1591C449.085 85.1591 449.602 85.2803 450.045 85.5227C450.489 85.7614 450.833 86.125 451.08 86.6136C451.326 87.0985 451.449 87.7121 451.449 88.4545V94H450.108V88.5455C450.108 87.8598 449.93 87.3258 449.574 86.9432C449.218 86.5568 448.729 86.3636 448.108 86.3636C447.68 86.3636 447.297 86.4564 446.96 86.642C446.627 86.8277 446.364 87.0985 446.17 87.4545C445.977 87.8106 445.881 88.2424 445.881 88.75ZM457.695 85.2727V86.4091H453.172V85.2727H457.695ZM454.49 83.1818H455.831V91.5C455.831 91.8788 455.886 92.1629 455.996 92.3523C456.109 92.5379 456.253 92.6629 456.428 92.7273C456.606 92.7879 456.793 92.8182 456.99 92.8182C457.138 92.8182 457.259 92.8106 457.354 92.7955C457.448 92.7765 457.524 92.7614 457.581 92.75L457.854 93.9545C457.763 93.9886 457.636 94.0227 457.473 94.0568C457.31 94.0947 457.104 94.1136 456.854 94.1136C456.475 94.1136 456.104 94.0322 455.74 93.8693C455.38 93.7064 455.081 93.4583 454.842 93.125C454.607 92.7917 454.49 92.3712 454.49 91.8636V83.1818ZM465.737 87.2273L464.533 87.5682C464.457 87.3674 464.345 87.1723 464.197 86.983C464.054 86.7898 463.857 86.6307 463.607 86.5057C463.357 86.3807 463.036 86.3182 462.646 86.3182C462.112 86.3182 461.667 86.4413 461.311 86.6875C460.959 86.9299 460.783 87.2386 460.783 87.6136C460.783 87.947 460.904 88.2102 461.146 88.4034C461.389 88.5966 461.768 88.7576 462.283 88.8864L463.578 89.2045C464.358 89.3939 464.94 89.6837 465.322 90.0739C465.705 90.4602 465.896 90.9583 465.896 91.5682C465.896 92.0682 465.752 92.5152 465.464 92.9091C465.18 93.303 464.783 93.6136 464.271 93.8409C463.76 94.0682 463.165 94.1818 462.487 94.1818C461.597 94.1818 460.86 93.9886 460.277 93.6023C459.694 93.2159 459.324 92.6515 459.169 91.9091L460.442 91.5909C460.563 92.0606 460.792 92.4129 461.129 92.6477C461.47 92.8826 461.915 93 462.464 93C463.089 93 463.586 92.8674 463.953 92.6023C464.324 92.3333 464.51 92.0114 464.51 91.6364C464.51 91.3333 464.404 91.0795 464.192 90.875C463.98 90.6667 463.654 90.5114 463.214 90.4091L461.76 90.0682C460.961 89.8788 460.374 89.5852 459.999 89.1875C459.627 88.786 459.442 88.2841 459.442 87.6818C459.442 87.1894 459.58 86.7538 459.857 86.375C460.137 85.9962 460.518 85.6989 460.999 85.483C461.483 85.267 462.033 85.1591 462.646 85.1591C463.51 85.1591 464.188 85.3485 464.68 85.7273C465.177 86.1061 465.529 86.6061 465.737 87.2273Z" fill="white" fill-opacity="0.8"/>
<path d="M557.391 65H545.777V62.9141L550.195 58.4727C551.5 57.1367 552.363 56.1914 552.785 55.6367C553.215 55.0742 553.527 54.5469 553.723 54.0547C553.918 53.5625 554.016 53.0352 554.016 52.4727C554.016 51.6992 553.781 51.0898 553.312 50.6445C552.852 50.1992 552.211 49.9766 551.391 49.9766C550.734 49.9766 550.098 50.0977 549.48 50.3398C548.871 50.582 548.164 51.0195 547.359 51.6523L545.871 49.8359C546.824 49.0312 547.75 48.4609 548.648 48.125C549.547 47.7891 550.504 47.6211 551.52 47.6211C553.113 47.6211 554.391 48.0391 555.352 48.875C556.312 49.7031 556.793 50.8203 556.793 52.2266C556.793 53 556.652 53.7344 556.371 54.4297C556.098 55.125 555.672 55.8438 555.094 56.5859C554.523 57.3203 553.57 58.3164 552.234 59.5742L549.258 62.457V62.5742H557.391V65ZM565.277 47.6445C566.902 47.6445 568.188 48.0195 569.133 48.7695C570.078 49.5117 570.551 50.5078 570.551 51.7578C570.551 53.5156 569.496 54.9141 567.387 55.9531C568.73 56.625 569.684 57.332 570.246 58.0742C570.816 58.8164 571.102 59.6445 571.102 60.5586C571.102 61.9727 570.582 63.1055 569.543 63.957C568.504 64.8086 567.098 65.2344 565.324 65.2344C563.465 65.2344 562.023 64.8359 561 64.0391C559.977 63.2422 559.465 62.1133 559.465 60.6523C559.465 59.6992 559.73 58.8438 560.262 58.0859C560.801 57.3203 561.68 56.6406 562.898 56.0469C561.852 55.4219 561.105 54.7617 560.66 54.0664C560.215 53.3711 559.992 52.5898 559.992 51.7227C559.992 50.4805 560.48 49.4922 561.457 48.7578C562.434 48.0156 563.707 47.6445 565.277 47.6445ZM562.102 60.5586C562.102 61.3711 562.387 62.0039 562.957 62.457C563.527 62.9023 564.301 63.125 565.277 63.125C566.285 63.125 567.066 62.8945 567.621 62.4336C568.184 61.9648 568.465 61.332 568.465 60.5352C568.465 59.9023 568.207 59.3242 567.691 58.8008C567.176 58.2773 566.395 57.793 565.348 57.3477L565.008 57.1953C563.977 57.6484 563.234 58.1484 562.781 58.6953C562.328 59.2344 562.102 59.8555 562.102 60.5586ZM565.254 49.7656C564.473 49.7656 563.844 49.9609 563.367 50.3516C562.891 50.7344 562.652 51.2578 562.652 51.9219C562.652 52.3281 562.738 52.6914 562.91 53.0117C563.082 53.332 563.332 53.625 563.66 53.8906C563.988 54.1484 564.543 54.4609 565.324 54.8281C566.262 54.4141 566.922 53.9805 567.305 53.5273C567.695 53.0664 567.891 52.5312 567.891 51.9219C567.891 51.2578 567.648 50.7344 567.164 50.3516C566.688 49.9609 566.051 49.7656 565.254 49.7656ZM584.812 56.4336C584.812 59.4102 584.332 61.6211 583.371 63.0664C582.418 64.5117 580.957 65.2344 578.988 65.2344C577.082 65.2344 575.637 64.4883 574.652 62.9961C573.668 61.5039 573.176 59.3164 573.176 56.4336C573.176 53.4102 573.652 51.1836 574.605 49.7539C575.566 48.3164 577.027 47.5977 578.988 47.5977C580.902 47.5977 582.352 48.3477 583.336 49.8477C584.32 51.3477 584.812 53.543 584.812 56.4336ZM575.965 56.4336C575.965 58.7695 576.203 60.4375 576.68 61.4375C577.164 62.4375 577.934 62.9375 578.988 62.9375C580.043 62.9375 580.812 62.4297 581.297 61.4141C581.789 60.3984 582.035 58.7383 582.035 56.4336C582.035 54.1367 581.789 52.4766 581.297 51.4531C580.812 50.4219 580.043 49.9062 578.988 49.9062C577.934 49.9062 577.164 50.4102 576.68 51.418C576.203 52.4258 575.965 54.0977 575.965 56.4336ZM598.523 56.4336C598.523 59.4102 598.043 61.6211 597.082 63.0664C596.129 64.5117 594.668 65.2344 592.699 65.2344C590.793 65.2344 589.348 64.4883 588.363 62.9961C587.379 61.5039 586.887 59.3164 586.887 56.4336C586.887 53.4102 587.363 51.1836 588.316 49.7539C589.277 48.3164 590.738 47.5977 592.699 47.5977C594.613 47.5977 596.062 48.3477 597.047 49.8477C598.031 51.3477 598.523 53.543 598.523 56.4336ZM589.676 56.4336C589.676 58.7695 589.914 60.4375 590.391 61.4375C590.875 62.4375 591.645 62.9375 592.699 62.9375C593.754 62.9375 594.523 62.4297 595.008 61.4141C595.5 60.3984 595.746 58.7383 595.746 56.4336C595.746 54.1367 595.5 52.4766 595.008 51.4531C594.523 50.4219 593.754 49.9062 592.699 49.9062C591.645 49.9062 590.875 50.4102 590.391 51.418C589.914 52.4258 589.676 54.0977 589.676 56.4336ZM605.355 57.582H600.691V55.4961H605.355V50.7148H607.465V55.4961H612.141V57.582H607.465V62.3398H605.355V57.582Z" fill="white"/>
<path d="M527.949 94H526.472L530.744 82.3636H532.199L536.472 94H534.994L531.517 84.2045H531.426L527.949 94ZM528.494 89.4545H534.449V90.7045H528.494V89.4545ZM539.443 88.75V94H538.102V85.2727H539.398V86.6364H539.511C539.716 86.1932 540.027 85.8371 540.443 85.5682C540.86 85.2955 541.398 85.1591 542.057 85.1591C542.648 85.1591 543.165 85.2803 543.608 85.5227C544.051 85.7614 544.396 86.125 544.642 86.6136C544.888 87.0985 545.011 87.7121 545.011 88.4545V94H543.67V88.5455C543.67 87.8598 543.492 87.3258 543.136 86.9432C542.78 86.5568 542.292 86.3636 541.67 86.3636C541.242 86.3636 540.86 86.4564 540.523 86.642C540.189 86.8277 539.926 87.0985 539.733 87.4545C539.54 87.8106 539.443 88.2424 539.443 88.75ZM548.803 88.75V94H547.462V85.2727H548.757V86.6364H548.871C549.075 86.1932 549.386 85.8371 549.803 85.5682C550.219 85.2955 550.757 85.1591 551.416 85.1591C552.007 85.1591 552.524 85.2803 552.967 85.5227C553.411 85.7614 553.755 86.125 554.001 86.6136C554.248 87.0985 554.371 87.7121 554.371 88.4545V94H553.03V88.5455C553.03 87.8598 552.852 87.3258 552.496 86.9432C552.14 86.5568 551.651 86.3636 551.03 86.3636C550.602 86.3636 550.219 86.4564 549.882 86.642C549.549 86.8277 549.286 87.0985 549.092 87.4545C548.899 87.8106 548.803 88.2424 548.803 88.75ZM562.321 90.4318V85.2727H563.662V94H562.321V92.5227H562.23C562.026 92.9659 561.707 93.3428 561.276 93.6534C560.844 93.9602 560.298 94.1136 559.639 94.1136C559.094 94.1136 558.609 93.9943 558.185 93.7557C557.76 93.5133 557.427 93.1496 557.185 92.6648C556.942 92.1761 556.821 91.5606 556.821 90.8182V85.2727H558.162V90.7273C558.162 91.3636 558.34 91.8712 558.696 92.25C559.056 92.6288 559.514 92.8182 560.071 92.8182C560.404 92.8182 560.743 92.733 561.088 92.5625C561.437 92.392 561.728 92.1307 561.963 91.7784C562.202 91.4261 562.321 90.9773 562.321 90.4318ZM568.686 94.2045C568.133 94.2045 567.631 94.1004 567.18 93.892C566.73 93.6799 566.372 93.375 566.107 92.9773C565.841 92.5758 565.709 92.0909 565.709 91.5227C565.709 91.0227 565.807 90.6174 566.004 90.3068C566.201 89.9924 566.464 89.7462 566.794 89.5682C567.124 89.3902 567.487 89.2576 567.885 89.1705C568.286 89.0795 568.69 89.0076 569.095 88.9545C569.625 88.8864 570.055 88.8352 570.385 88.8011C570.718 88.7633 570.961 88.7008 571.112 88.6136C571.268 88.5265 571.345 88.375 571.345 88.1591V88.1136C571.345 87.553 571.192 87.1174 570.885 86.8068C570.582 86.4962 570.122 86.3409 569.504 86.3409C568.864 86.3409 568.362 86.4811 567.999 86.7614C567.635 87.0417 567.379 87.3409 567.232 87.6591L565.959 87.2045C566.186 86.6742 566.489 86.2614 566.868 85.9659C567.25 85.6667 567.667 85.4583 568.118 85.3409C568.572 85.2197 569.019 85.1591 569.459 85.1591C569.739 85.1591 570.061 85.1932 570.425 85.2614C570.792 85.3258 571.146 85.4602 571.487 85.6648C571.832 85.8693 572.118 86.178 572.345 86.5909C572.572 87.0038 572.686 87.5568 572.686 88.25V94H571.345V92.8182H571.277C571.186 93.0076 571.035 93.2102 570.822 93.4261C570.61 93.642 570.328 93.8258 569.976 93.9773C569.624 94.1288 569.194 94.2045 568.686 94.2045ZM568.891 93C569.421 93 569.868 92.8958 570.232 92.6875C570.599 92.4792 570.875 92.2102 571.061 91.8807C571.25 91.5511 571.345 91.2045 571.345 90.8409V89.6136C571.288 89.6818 571.163 89.7443 570.97 89.8011C570.781 89.8542 570.561 89.9015 570.311 89.9432C570.065 89.9811 569.824 90.0152 569.589 90.0455C569.358 90.072 569.171 90.0947 569.027 90.1136C568.679 90.1591 568.353 90.233 568.05 90.3352C567.75 90.4337 567.508 90.5833 567.322 90.7841C567.141 90.9811 567.05 91.25 567.05 91.5909C567.05 92.0568 567.222 92.4091 567.567 92.6477C567.915 92.8826 568.357 93 568.891 93ZM576.474 82.3636V94H575.134V82.3636H576.474ZM583.612 82.3636H585.294L589.249 92.0227H589.385L593.339 82.3636H595.021V94H593.703V85.1591H593.589L589.953 94H588.68L585.044 85.1591H584.93V94H583.612V82.3636ZM601.21 94.1818C600.422 94.1818 599.731 93.9943 599.136 93.6193C598.545 93.2443 598.083 92.7197 597.75 92.0455C597.42 91.3712 597.256 90.5833 597.256 89.6818C597.256 88.7727 597.42 87.9792 597.75 87.3011C598.083 86.6231 598.545 86.0966 599.136 85.7216C599.731 85.3466 600.422 85.1591 601.21 85.1591C601.998 85.1591 602.688 85.3466 603.278 85.7216C603.873 86.0966 604.335 86.6231 604.665 87.3011C604.998 87.9792 605.165 88.7727 605.165 89.6818C605.165 90.5833 604.998 91.3712 604.665 92.0455C604.335 92.7197 603.873 93.2443 603.278 93.6193C602.688 93.9943 601.998 94.1818 601.21 94.1818ZM601.21 92.9773C601.809 92.9773 602.301 92.8239 602.688 92.517C603.074 92.2102 603.36 91.8068 603.545 91.3068C603.731 90.8068 603.824 90.2652 603.824 89.6818C603.824 89.0985 603.731 88.5549 603.545 88.0511C603.36 87.5473 603.074 87.1402 602.688 86.8295C602.301 86.5189 601.809 86.3636 601.21 86.3636C600.612 86.3636 600.119 86.5189 599.733 86.8295C599.347 87.1402 599.061 87.5473 598.875 88.0511C598.689 88.5549 598.597 89.0985 598.597 89.6818C598.597 90.2652 598.689 90.8068 598.875 91.3068C599.061 91.8068 599.347 92.2102 599.733 92.517C600.119 92.8239 600.612 92.9773 601.21 92.9773ZM614.036 85.2727L610.808 94H609.445L606.217 85.2727H607.672L610.081 92.2273H610.172L612.581 85.2727H614.036ZM619.152 94.1818C618.311 94.1818 617.586 93.9962 616.976 93.625C616.37 93.25 615.902 92.7273 615.572 92.0568C615.247 91.3826 615.084 90.5985 615.084 89.7045C615.084 88.8106 615.247 88.0227 615.572 87.3409C615.902 86.6553 616.36 86.1212 616.947 85.7386C617.538 85.3523 618.228 85.1591 619.016 85.1591C619.47 85.1591 619.919 85.2348 620.362 85.3864C620.805 85.5379 621.209 85.7841 621.572 86.125C621.936 86.4621 622.226 86.9091 622.442 87.4659C622.658 88.0227 622.766 88.7083 622.766 89.5227V90.0909H616.038V88.9318H621.402C621.402 88.4394 621.304 88 621.107 87.6136C620.913 87.2273 620.637 86.9223 620.277 86.6989C619.921 86.4754 619.5 86.3636 619.016 86.3636C618.482 86.3636 618.019 86.4962 617.629 86.7614C617.243 87.0227 616.946 87.3636 616.737 87.7841C616.529 88.2045 616.425 88.6553 616.425 89.1364V89.9091C616.425 90.5682 616.538 91.1269 616.766 91.5852C616.997 92.0398 617.317 92.3864 617.726 92.625C618.135 92.8598 618.61 92.9773 619.152 92.9773C619.504 92.9773 619.822 92.928 620.107 92.8295C620.394 92.7273 620.643 92.5758 620.851 92.375C621.059 92.1705 621.22 91.9167 621.334 91.6136L622.629 91.9773C622.493 92.4167 622.264 92.803 621.942 93.1364C621.62 93.4659 621.222 93.7235 620.749 93.9091C620.275 94.0909 619.743 94.1818 619.152 94.1818ZM630.987 87.2273L629.783 87.5682C629.707 87.3674 629.595 87.1723 629.447 86.983C629.304 86.7898 629.107 86.6307 628.857 86.5057C628.607 86.3807 628.286 86.3182 627.896 86.3182C627.362 86.3182 626.917 86.4413 626.561 86.6875C626.209 86.9299 626.033 87.2386 626.033 87.6136C626.033 87.947 626.154 88.2102 626.396 88.4034C626.639 88.5966 627.018 88.7576 627.533 88.8864L628.828 89.2045C629.608 89.3939 630.19 89.6837 630.572 90.0739C630.955 90.4602 631.146 90.9583 631.146 91.5682C631.146 92.0682 631.002 92.5152 630.714 92.9091C630.43 93.303 630.033 93.6136 629.521 93.8409C629.01 94.0682 628.415 94.1818 627.737 94.1818C626.847 94.1818 626.11 93.9886 625.527 93.6023C624.944 93.2159 624.574 92.6515 624.419 91.9091L625.692 91.5909C625.813 92.0606 626.042 92.4129 626.379 92.6477C626.72 92.8826 627.165 93 627.714 93C628.339 93 628.836 92.8674 629.203 92.6023C629.574 92.3333 629.76 92.0114 629.76 91.6364C629.76 91.3333 629.654 91.0795 629.442 90.875C629.23 90.6667 628.904 90.5114 628.464 90.4091L627.01 90.0682C626.211 89.8788 625.624 89.5852 625.249 89.1875C624.877 88.786 624.692 88.2841 624.692 87.6818C624.692 87.1894 624.83 86.7538 625.107 86.375C625.387 85.9962 625.768 85.6989 626.249 85.483C626.733 85.267 627.283 85.1591 627.896 85.1591C628.76 85.1591 629.438 85.3485 629.93 85.7273C630.427 86.1061 630.779 86.6061 630.987 87.2273Z" fill="white" fill-opacity="0.8"/>
</g>
<defs>
<filter id="filter0_b_1_2" x="-32" y="-32" width="736" height="204" filterUnits="userSpaceOnUse" color-interpolation-filters="sRGB">
<feFlood flood-opacity="0" result="BackgroundImageFix"/>
<feGaussianBlur in="BackgroundImageFix" stdDeviation="16"/>
<feComposite in2="SourceAlpha" operator="in" result="effect1_backgroundBlur_1_2"/>
<feBlend mode="normal" in="SourceGraphic" in2="effect1_backgroundBlur_1_2" result="shape"/>
</filter>
</defs>
</svg>
