<svg width="441" height="96" viewBox="0 0 441 96" fill="none" xmlns="http://www.w3.org/2000/svg">
<g filter="url(#filter0_b_1_16)">
<rect width="441" height="96" rx="8" fill="#712A68" fill-opacity="0.8"/>
<path d="M42.8047 33.2031C42.8047 33.9271 42.5938 34.5312 42.1719 35.0156C41.75 35.4948 41.1562 35.8177 40.3906 35.9844V36.0469C41.3073 36.1615 41.9948 36.4479 42.4531 36.9062C42.9115 37.3594 43.1406 37.9635 43.1406 38.7188C43.1406 39.8177 42.7526 40.6667 41.9766 41.2656C41.2005 41.8594 40.0964 42.1562 38.6641 42.1562C37.3984 42.1562 36.3307 41.9505 35.4609 41.5391V39.9062C35.9453 40.1458 36.4583 40.3307 37 40.4609C37.5417 40.5911 38.0625 40.6562 38.5625 40.6562C39.4479 40.6562 40.1094 40.4922 40.5469 40.1641C40.9844 39.8359 41.2031 39.3281 41.2031 38.6406C41.2031 38.0312 40.9609 37.5833 40.4766 37.2969C39.9922 37.0104 39.2318 36.8672 38.1953 36.8672H37.2031V35.375H38.2109C40.0339 35.375 40.9453 34.7448 40.9453 33.4844C40.9453 32.9948 40.7865 32.6172 40.4688 32.3516C40.151 32.0859 39.6823 31.9531 39.0625 31.9531C38.6302 31.9531 38.2135 32.0156 37.8125 32.1406C37.4115 32.2604 36.9375 32.4974 36.3906 32.8516L35.4922 31.5703C36.5391 30.7995 37.7552 30.4141 39.1406 30.4141C40.2917 30.4141 41.1901 30.6615 41.8359 31.1562C42.4818 31.651 42.8047 32.3333 42.8047 33.2031ZM52.375 36.2891C52.375 38.2734 52.0547 39.7474 51.4141 40.7109C50.7786 41.6745 49.8047 42.1562 48.4922 42.1562C47.2214 42.1562 46.2578 41.6589 45.6016 40.6641C44.9453 39.6693 44.6172 38.2109 44.6172 36.2891C44.6172 34.2734 44.9349 32.7891 45.5703 31.8359C46.2109 30.8776 47.1849 30.3984 48.4922 30.3984C49.7682 30.3984 50.7344 30.8984 51.3906 31.8984C52.0469 32.8984 52.375 34.362 52.375 36.2891ZM46.4766 36.2891C46.4766 37.8464 46.6354 38.9583 46.9531 39.625C47.276 40.2917 47.7891 40.625 48.4922 40.625C49.1953 40.625 49.7083 40.2865 50.0312 39.6094C50.3594 38.9323 50.5234 37.8255 50.5234 36.2891C50.5234 34.7578 50.3594 33.651 50.0312 32.9688C49.7083 32.2812 49.1953 31.9375 48.4922 31.9375C47.7891 31.9375 47.276 32.2734 46.9531 32.9453C46.6354 33.6172 46.4766 34.7318 46.4766 36.2891ZM56.9297 37.0547H53.8203V35.6641H56.9297V32.4766H58.3359V35.6641H61.4531V37.0547H58.3359V40.2266H56.9297V37.0547Z" fill="white"/>
<path d="M25.176 64V55.2727H26.2328V63.0625H30.2896V64H25.176ZM34.4487 64.1364C33.8578 64.1364 33.3393 63.9957 32.8933 63.7145C32.4501 63.4332 32.1035 63.0398 31.8535 62.5341C31.6064 62.0284 31.4828 61.4375 31.4828 60.7614C31.4828 60.0795 31.6064 59.4844 31.8535 58.9759C32.1035 58.4673 32.4501 58.0724 32.8933 57.7912C33.3393 57.5099 33.8578 57.3693 34.4487 57.3693C35.0396 57.3693 35.5566 57.5099 35.9998 57.7912C36.4458 58.0724 36.7924 58.4673 37.0396 58.9759C37.2896 59.4844 37.4146 60.0795 37.4146 60.7614C37.4146 61.4375 37.2896 62.0284 37.0396 62.5341C36.7924 63.0398 36.4458 63.4332 35.9998 63.7145C35.5566 63.9957 35.0396 64.1364 34.4487 64.1364ZM34.4487 63.233C34.8975 63.233 35.2669 63.1179 35.5566 62.8878C35.8464 62.6577 36.0609 62.3551 36.2001 61.9801C36.3393 61.6051 36.4089 61.1989 36.4089 60.7614C36.4089 60.3239 36.3393 59.9162 36.2001 59.5384C36.0609 59.1605 35.8464 58.8551 35.5566 58.6222C35.2669 58.3892 34.8975 58.2727 34.4487 58.2727C33.9998 58.2727 33.6305 58.3892 33.3407 58.6222C33.051 58.8551 32.8365 59.1605 32.6973 59.5384C32.5581 59.9162 32.4885 60.3239 32.4885 60.7614C32.4885 61.1989 32.5581 61.6051 32.6973 61.9801C32.8365 62.3551 33.051 62.6577 33.3407 62.8878C33.6305 63.1179 33.9998 63.233 34.4487 63.233ZM41.6088 64.1364C40.9952 64.1364 40.4668 63.9915 40.0236 63.7017C39.5804 63.4119 39.2395 63.0128 39.0009 62.5043C38.7623 61.9957 38.6429 61.4148 38.6429 60.7614C38.6429 60.0966 38.7651 59.5099 39.0094 59.0014C39.2566 58.4901 39.6003 58.0909 40.0407 57.804C40.4838 57.5142 41.0009 57.3693 41.5918 57.3693C42.052 57.3693 42.4668 57.4545 42.8361 57.625C43.2054 57.7955 43.508 58.0341 43.7438 58.3409C43.9796 58.6477 44.1259 59.0057 44.1827 59.4148H43.177C43.1003 59.1165 42.9299 58.8523 42.6657 58.6222C42.4043 58.3892 42.052 58.2727 41.6088 58.2727C41.2168 58.2727 40.873 58.375 40.5776 58.5795C40.285 58.7812 40.0563 59.0668 39.8915 59.4361C39.7296 59.8026 39.6486 60.233 39.6486 60.7273C39.6486 61.233 39.7282 61.6733 39.8873 62.0483C40.0492 62.4233 40.2765 62.7145 40.5691 62.9219C40.8645 63.1293 41.2111 63.233 41.6088 63.233C41.8702 63.233 42.1074 63.1875 42.3205 63.0966C42.5336 63.0057 42.714 62.875 42.8617 62.7045C43.0094 62.5341 43.1145 62.3295 43.177 62.0909H44.1827C44.1259 62.4773 43.9853 62.8253 43.7608 63.1349C43.5392 63.4418 43.2452 63.6861 42.8787 63.8679C42.5151 64.0469 42.0918 64.1364 41.6088 64.1364ZM47.579 64.1534C47.1642 64.1534 46.7878 64.0753 46.4498 63.919C46.1117 63.7599 45.8432 63.5312 45.6444 63.233C45.4455 62.9318 45.3461 62.5682 45.3461 62.142C45.3461 61.767 45.4199 61.4631 45.5676 61.2301C45.7154 60.9943 45.9128 60.8097 46.16 60.6761C46.4071 60.5426 46.6799 60.4432 46.9782 60.3778C47.2793 60.3097 47.5819 60.2557 47.8858 60.2159C48.2836 60.1648 48.606 60.1264 48.8532 60.1009C49.1032 60.0724 49.285 60.0256 49.3986 59.9602C49.5151 59.8949 49.5733 59.7812 49.5733 59.6193V59.5852C49.5733 59.1648 49.4583 58.8381 49.2282 58.6051C49.0009 58.3722 48.6557 58.2557 48.1926 58.2557C47.7125 58.2557 47.3361 58.3608 47.0634 58.571C46.7907 58.7812 46.5989 59.0057 46.4881 59.2443L45.5336 58.9034C45.704 58.5057 45.9313 58.196 46.2154 57.9744C46.5023 57.75 46.8148 57.5937 47.1529 57.5057C47.4938 57.4148 47.829 57.3693 48.1586 57.3693C48.3688 57.3693 48.6103 57.3949 48.883 57.446C49.1586 57.4943 49.4242 57.5952 49.6799 57.7486C49.9384 57.902 50.1529 58.1335 50.3233 58.4432C50.4938 58.7528 50.579 59.1676 50.579 59.6875V64H49.5733V63.1136H49.5222C49.454 63.2557 49.3404 63.4077 49.1813 63.5696C49.0222 63.7315 48.8105 63.8693 48.5463 63.983C48.2821 64.0966 47.9597 64.1534 47.579 64.1534ZM47.7324 63.25C48.1301 63.25 48.4654 63.1719 48.7381 63.0156C49.0137 62.8594 49.2211 62.6577 49.3603 62.4105C49.5023 62.1634 49.5733 61.9034 49.5733 61.6307V60.7102C49.5307 60.7614 49.437 60.8082 49.2921 60.8509C49.15 60.8906 48.9853 60.9261 48.7978 60.9574C48.6131 60.9858 48.4327 61.0114 48.2566 61.0341C48.0833 61.054 47.9426 61.071 47.8347 61.0852C47.5733 61.1193 47.329 61.1747 47.1017 61.2514C46.8773 61.3253 46.6955 61.4375 46.5563 61.5881C46.4199 61.7358 46.3517 61.9375 46.3517 62.1932C46.3517 62.5426 46.481 62.8068 46.7395 62.9858C47.0009 63.1619 47.3319 63.25 47.7324 63.25ZM55.2612 57.4545V58.3068H51.8691V57.4545H55.2612ZM52.8578 55.8864H53.8635V62.125C53.8635 62.4091 53.9047 62.6222 53.987 62.7642C54.0723 62.9034 54.1802 62.9972 54.3109 63.0455C54.4444 63.0909 54.585 63.1136 54.7328 63.1136C54.8436 63.1136 54.9345 63.108 55.0055 63.0966C55.0765 63.0824 55.1333 63.071 55.176 63.0625L55.3805 63.9659C55.3123 63.9915 55.2172 64.017 55.095 64.0426C54.9728 64.071 54.818 64.0852 54.6305 64.0852C54.3464 64.0852 54.068 64.0241 53.7953 63.902C53.5254 63.7798 53.301 63.5938 53.122 63.3438C52.9458 63.0938 52.8578 62.7784 52.8578 62.3977V55.8864ZM56.774 64V57.4545H57.7797V64H56.774ZM57.2853 56.3636C57.0893 56.3636 56.9203 56.2969 56.7782 56.1634C56.639 56.0298 56.5694 55.8693 56.5694 55.6818C56.5694 55.4943 56.639 55.3338 56.7782 55.2003C56.9203 55.0668 57.0893 55 57.2853 55C57.4814 55 57.649 55.0668 57.7882 55.2003C57.9302 55.3338 58.0012 55.4943 58.0012 55.6818C58.0012 55.8693 57.9302 56.0298 57.7882 56.1634C57.649 56.2969 57.4814 56.3636 57.2853 56.3636ZM62.2807 64.1364C61.6898 64.1364 61.1713 63.9957 60.7253 63.7145C60.2821 63.4332 59.9355 63.0398 59.6855 62.5341C59.4384 62.0284 59.3148 61.4375 59.3148 60.7614C59.3148 60.0795 59.4384 59.4844 59.6855 58.9759C59.9355 58.4673 60.2821 58.0724 60.7253 57.7912C61.1713 57.5099 61.6898 57.3693 62.2807 57.3693C62.8716 57.3693 63.3887 57.5099 63.8319 57.7912C64.2779 58.0724 64.6245 58.4673 64.8716 58.9759C65.1216 59.4844 65.2466 60.0795 65.2466 60.7614C65.2466 61.4375 65.1216 62.0284 64.8716 62.5341C64.6245 63.0398 64.2779 63.4332 63.8319 63.7145C63.3887 63.9957 62.8716 64.1364 62.2807 64.1364ZM62.2807 63.233C62.7296 63.233 63.0989 63.1179 63.3887 62.8878C63.6784 62.6577 63.8929 62.3551 64.0321 61.9801C64.1713 61.6051 64.2409 61.1989 64.2409 60.7614C64.2409 60.3239 64.1713 59.9162 64.0321 59.5384C63.8929 59.1605 63.6784 58.8551 63.3887 58.6222C63.0989 58.3892 62.7296 58.2727 62.2807 58.2727C61.8319 58.2727 61.4625 58.3892 61.1728 58.6222C60.883 58.8551 60.6685 59.1605 60.5293 59.5384C60.3901 59.9162 60.3205 60.3239 60.3205 60.7614C60.3205 61.1989 60.3901 61.6051 60.5293 61.9801C60.6685 62.3551 60.883 62.6577 61.1728 62.8878C61.4625 63.1179 61.8319 63.233 62.2807 63.233ZM67.7875 60.0625V64H66.7818V57.4545H67.7534V58.4773H67.8386C67.992 58.1449 68.225 57.8778 68.5375 57.6761C68.85 57.4716 69.2534 57.3693 69.7477 57.3693C70.1909 57.3693 70.5787 57.4602 70.911 57.642C71.2434 57.821 71.502 58.0938 71.6866 58.4602C71.8713 58.8239 71.9636 59.2841 71.9636 59.8409V64H70.9579V59.9091C70.9579 59.3949 70.8244 58.9943 70.5574 58.7074C70.2903 58.4176 69.9238 58.2727 69.4579 58.2727C69.1369 58.2727 68.85 58.3423 68.5971 58.4815C68.3471 58.6207 68.1497 58.8239 68.0048 59.0909C67.8599 59.358 67.7875 59.6818 67.7875 60.0625Z" fill="white" fill-opacity="0.8"/>
<path d="M142.367 34.8672C143.518 34.8672 144.43 35.1719 145.102 35.7812C145.773 36.3906 146.109 37.2214 146.109 38.2734C146.109 39.4922 145.727 40.4453 144.961 41.1328C144.201 41.8151 143.117 42.1562 141.711 42.1562C140.435 42.1562 139.432 41.9505 138.703 41.5391V39.875C139.125 40.1146 139.609 40.2995 140.156 40.4297C140.703 40.5599 141.211 40.625 141.68 40.625C142.508 40.625 143.138 40.4401 143.57 40.0703C144.003 39.7005 144.219 39.1589 144.219 38.4453C144.219 37.0807 143.349 36.3984 141.609 36.3984C141.365 36.3984 141.062 36.4245 140.703 36.4766C140.344 36.5234 140.029 36.5781 139.758 36.6406L138.938 36.1562L139.375 30.5781H145.312V32.2109H140.992L140.734 35.0391C140.917 35.0078 141.138 34.9714 141.398 34.9297C141.664 34.888 141.987 34.8672 142.367 34.8672ZM155.375 36.2891C155.375 38.2734 155.055 39.7474 154.414 40.7109C153.779 41.6745 152.805 42.1562 151.492 42.1562C150.221 42.1562 149.258 41.6589 148.602 40.6641C147.945 39.6693 147.617 38.2109 147.617 36.2891C147.617 34.2734 147.935 32.7891 148.57 31.8359C149.211 30.8776 150.185 30.3984 151.492 30.3984C152.768 30.3984 153.734 30.8984 154.391 31.8984C155.047 32.8984 155.375 34.362 155.375 36.2891ZM149.477 36.2891C149.477 37.8464 149.635 38.9583 149.953 39.625C150.276 40.2917 150.789 40.625 151.492 40.625C152.195 40.625 152.708 40.2865 153.031 39.6094C153.359 38.9323 153.523 37.8255 153.523 36.2891C153.523 34.7578 153.359 33.651 153.031 32.9688C152.708 32.2812 152.195 31.9375 151.492 31.9375C150.789 31.9375 150.276 32.2734 149.953 32.9453C149.635 33.6172 149.477 34.7318 149.477 36.2891ZM159.93 37.0547H156.82V35.6641H159.93V32.4766H161.336V35.6641H164.453V37.0547H161.336V40.2266H159.93V37.0547Z" fill="white"/>
<path d="M101.463 64V55.2727H104.412C105.097 55.2727 105.656 55.3963 106.091 55.6435C106.528 55.8878 106.852 56.2188 107.062 56.6364C107.273 57.054 107.378 57.5199 107.378 58.0341C107.378 58.5483 107.273 59.0156 107.062 59.4361C106.855 59.8565 106.534 60.1918 106.099 60.4418C105.665 60.6889 105.108 60.8125 104.429 60.8125H102.315V59.875H104.395C104.864 59.875 105.24 59.794 105.524 59.6321C105.808 59.4702 106.014 59.2514 106.142 58.9759C106.273 58.6974 106.338 58.3835 106.338 58.0341C106.338 57.6847 106.273 57.3722 106.142 57.0966C106.014 56.821 105.807 56.6051 105.52 56.4489C105.233 56.2898 104.852 56.2102 104.378 56.2102H102.52V64H101.463ZM108.944 64V57.4545H109.915V58.4432H109.984C110.103 58.1193 110.319 57.8565 110.631 57.6548C110.944 57.4531 111.296 57.3523 111.688 57.3523C111.762 57.3523 111.854 57.3537 111.965 57.3565C112.076 57.3594 112.16 57.3636 112.217 57.3693V58.392C112.183 58.3835 112.104 58.3707 111.982 58.3537C111.863 58.3338 111.737 58.3239 111.603 58.3239C111.285 58.3239 111.001 58.3906 110.751 58.5241C110.504 58.6548 110.308 58.8366 110.163 59.0696C110.021 59.2997 109.95 59.5625 109.95 59.858V64H108.944ZM115.954 64.1364C115.323 64.1364 114.779 63.9972 114.322 63.7188C113.867 63.4375 113.516 63.0455 113.269 62.5426C113.025 62.0369 112.903 61.4489 112.903 60.7784C112.903 60.108 113.025 59.517 113.269 59.0057C113.516 58.4915 113.86 58.0909 114.3 57.804C114.744 57.5142 115.261 57.3693 115.852 57.3693C116.192 57.3693 116.529 57.4261 116.862 57.5398C117.194 57.6534 117.496 57.8381 117.769 58.0938C118.042 58.3466 118.259 58.6818 118.421 59.0994C118.583 59.517 118.664 60.0312 118.664 60.642V61.0682H113.619V60.1989H117.641C117.641 59.8295 117.567 59.5 117.42 59.2102C117.275 58.9205 117.067 58.6918 116.798 58.5241C116.531 58.3565 116.215 58.2727 115.852 58.2727C115.451 58.2727 115.104 58.3722 114.812 58.571C114.522 58.767 114.299 59.0227 114.143 59.3381C113.987 59.6534 113.908 59.9915 113.908 60.3523V60.9318C113.908 61.4261 113.994 61.8452 114.164 62.1889C114.337 62.5298 114.577 62.7898 114.884 62.9688C115.191 63.1449 115.548 63.233 115.954 63.233C116.218 63.233 116.457 63.196 116.67 63.1222C116.886 63.0455 117.072 62.9318 117.228 62.7812C117.384 62.6278 117.505 62.4375 117.59 62.2102L118.562 62.483C118.46 62.8125 118.288 63.1023 118.046 63.3523C117.805 63.5994 117.506 63.7926 117.151 63.9318C116.796 64.0682 116.397 64.1364 115.954 64.1364ZM123.109 57.4545V58.3068H119.58V57.4545H123.109ZM120.637 64V56.5511C120.637 56.1761 120.725 55.8636 120.901 55.6136C121.077 55.3636 121.306 55.1761 121.587 55.0511C121.869 54.9261 122.165 54.8636 122.478 54.8636C122.725 54.8636 122.927 54.8835 123.083 54.9233C123.239 54.9631 123.356 55 123.433 55.0341L123.143 55.9034C123.092 55.8864 123.021 55.8651 122.93 55.8395C122.842 55.8139 122.725 55.8011 122.58 55.8011C122.248 55.8011 122.008 55.8849 121.86 56.0526C121.715 56.2202 121.643 56.4659 121.643 56.7898V64H120.637ZM126.993 64.1364C126.362 64.1364 125.818 63.9972 125.361 63.7188C124.906 63.4375 124.555 63.0455 124.308 62.5426C124.064 62.0369 123.942 61.4489 123.942 60.7784C123.942 60.108 124.064 59.517 124.308 59.0057C124.555 58.4915 124.899 58.0909 125.339 57.804C125.783 57.5142 126.3 57.3693 126.891 57.3693C127.232 57.3693 127.568 57.4261 127.901 57.5398C128.233 57.6534 128.536 57.8381 128.808 58.0938C129.081 58.3466 129.298 58.6818 129.46 59.0994C129.622 59.517 129.703 60.0312 129.703 60.642V61.0682H124.658V60.1989H128.68C128.68 59.8295 128.607 59.5 128.459 59.2102C128.314 58.9205 128.107 58.6918 127.837 58.5241C127.57 58.3565 127.254 58.2727 126.891 58.2727C126.49 58.2727 126.143 58.3722 125.851 58.571C125.561 58.767 125.338 59.0227 125.182 59.3381C125.026 59.6534 124.947 59.9915 124.947 60.3523V60.9318C124.947 61.4261 125.033 61.8452 125.203 62.1889C125.376 62.5298 125.616 62.7898 125.923 62.9688C126.23 63.1449 126.587 63.233 126.993 63.233C127.257 63.233 127.496 63.196 127.709 63.1222C127.925 63.0455 128.111 62.9318 128.267 62.7812C128.423 62.6278 128.544 62.4375 128.629 62.2102L129.601 62.483C129.499 62.8125 129.327 63.1023 129.085 63.3523C128.844 63.5994 128.545 63.7926 128.19 63.9318C127.835 64.0682 127.436 64.1364 126.993 64.1364ZM135.869 58.9205L134.966 59.1761C134.909 59.0256 134.825 58.8793 134.714 58.7372C134.607 58.5923 134.459 58.473 134.271 58.3793C134.084 58.2855 133.844 58.2386 133.551 58.2386C133.151 58.2386 132.817 58.331 132.55 58.5156C132.286 58.6974 132.153 58.929 132.153 59.2102C132.153 59.4602 132.244 59.6577 132.426 59.8026C132.608 59.9474 132.892 60.0682 133.278 60.1648L134.25 60.4034C134.835 60.5455 135.271 60.7628 135.558 61.0554C135.845 61.3452 135.989 61.7187 135.989 62.1761C135.989 62.5511 135.881 62.8864 135.665 63.1818C135.452 63.4773 135.153 63.7102 134.77 63.8807C134.386 64.0511 133.94 64.1364 133.432 64.1364C132.764 64.1364 132.212 63.9915 131.774 63.7017C131.337 63.4119 131.06 62.9886 130.943 62.4318L131.898 62.1932C131.989 62.5455 132.161 62.8097 132.413 62.9858C132.669 63.1619 133.003 63.25 133.415 63.25C133.884 63.25 134.256 63.1506 134.531 62.9517C134.81 62.75 134.949 62.5085 134.949 62.2273C134.949 62 134.869 61.8097 134.71 61.6562C134.551 61.5 134.307 61.3835 133.977 61.3068L132.886 61.0511C132.287 60.9091 131.847 60.6889 131.565 60.3906C131.287 60.0895 131.148 59.7131 131.148 59.2614C131.148 58.892 131.251 58.5653 131.459 58.2812C131.669 57.9972 131.955 57.7741 132.315 57.6122C132.679 57.4503 133.091 57.3693 133.551 57.3693C134.199 57.3693 134.707 57.5114 135.077 57.7955C135.449 58.0795 135.713 58.4545 135.869 58.9205ZM142.139 58.9205L141.235 59.1761C141.179 59.0256 141.095 58.8793 140.984 58.7372C140.876 58.5923 140.728 58.473 140.541 58.3793C140.353 58.2855 140.113 58.2386 139.821 58.2386C139.42 58.2386 139.086 58.331 138.819 58.5156C138.555 58.6974 138.423 58.929 138.423 59.2102C138.423 59.4602 138.514 59.6577 138.696 59.8026C138.877 59.9474 139.162 60.0682 139.548 60.1648L140.52 60.4034C141.105 60.5455 141.541 60.7628 141.828 61.0554C142.115 61.3452 142.258 61.7187 142.258 62.1761C142.258 62.5511 142.15 62.8864 141.934 63.1818C141.721 63.4773 141.423 63.7102 141.039 63.8807C140.656 64.0511 140.21 64.1364 139.701 64.1364C139.034 64.1364 138.481 63.9915 138.044 63.7017C137.606 63.4119 137.329 62.9886 137.213 62.4318L138.167 62.1932C138.258 62.5455 138.43 62.8097 138.683 62.9858C138.939 63.1619 139.272 63.25 139.684 63.25C140.153 63.25 140.525 63.1506 140.801 62.9517C141.079 62.75 141.218 62.5085 141.218 62.2273C141.218 62 141.139 61.8097 140.98 61.6562C140.821 61.5 140.576 61.3835 140.247 61.3068L139.156 61.0511C138.556 60.9091 138.116 60.6889 137.835 60.3906C137.556 60.0895 137.417 59.7131 137.417 59.2614C137.417 58.892 137.521 58.5653 137.728 58.2812C137.939 57.9972 138.224 57.7741 138.585 57.6122C138.949 57.4503 139.36 57.3693 139.821 57.3693C140.468 57.3693 140.977 57.5114 141.346 57.7955C141.718 58.0795 141.983 58.4545 142.139 58.9205ZM143.772 64V57.4545H144.778V64H143.772ZM144.283 56.3636C144.087 56.3636 143.918 56.2969 143.776 56.1634C143.637 56.0298 143.567 55.8693 143.567 55.6818C143.567 55.4943 143.637 55.3338 143.776 55.2003C143.918 55.0668 144.087 55 144.283 55C144.479 55 144.647 55.0668 144.786 55.2003C144.928 55.3338 144.999 55.4943 144.999 55.6818C144.999 55.8693 144.928 56.0298 144.786 56.1634C144.647 56.2969 144.479 56.3636 144.283 56.3636ZM149.279 64.1364C148.688 64.1364 148.169 63.9957 147.723 63.7145C147.28 63.4332 146.934 63.0398 146.684 62.5341C146.436 62.0284 146.313 61.4375 146.313 60.7614C146.313 60.0795 146.436 59.4844 146.684 58.9759C146.934 58.4673 147.28 58.0724 147.723 57.7912C148.169 57.5099 148.688 57.3693 149.279 57.3693C149.87 57.3693 150.387 57.5099 150.83 57.7912C151.276 58.0724 151.623 58.4673 151.87 58.9759C152.12 59.4844 152.245 60.0795 152.245 60.7614C152.245 61.4375 152.12 62.0284 151.87 62.5341C151.623 63.0398 151.276 63.4332 150.83 63.7145C150.387 63.9957 149.87 64.1364 149.279 64.1364ZM149.279 63.233C149.728 63.233 150.097 63.1179 150.387 62.8878C150.676 62.6577 150.891 62.3551 151.03 61.9801C151.169 61.6051 151.239 61.1989 151.239 60.7614C151.239 60.3239 151.169 59.9162 151.03 59.5384C150.891 59.1605 150.676 58.8551 150.387 58.6222C150.097 58.3892 149.728 58.2727 149.279 58.2727C148.83 58.2727 148.461 58.3892 148.171 58.6222C147.881 58.8551 147.667 59.1605 147.527 59.5384C147.388 59.9162 147.319 60.3239 147.319 60.7614C147.319 61.1989 147.388 61.6051 147.527 61.9801C147.667 62.3551 147.881 62.6577 148.171 62.8878C148.461 63.1179 148.83 63.233 149.279 63.233ZM154.786 60.0625V64H153.78V57.4545H154.751V58.4773H154.837C154.99 58.1449 155.223 57.8778 155.536 57.6761C155.848 57.4716 156.251 57.3693 156.746 57.3693C157.189 57.3693 157.577 57.4602 157.909 57.642C158.241 57.821 158.5 58.0938 158.685 58.4602C158.869 58.8239 158.962 59.2841 158.962 59.8409V64H157.956V59.9091C157.956 59.3949 157.822 58.9943 157.555 58.7074C157.288 58.4176 156.922 58.2727 156.456 58.2727C156.135 58.2727 155.848 58.3423 155.595 58.4815C155.345 58.6207 155.148 58.8239 155.003 59.0909C154.858 59.358 154.786 59.6818 154.786 60.0625ZM162.725 64.1534C162.311 64.1534 161.934 64.0753 161.596 63.919C161.258 63.7599 160.99 63.5312 160.791 63.233C160.592 62.9318 160.493 62.5682 160.493 62.142C160.493 61.767 160.566 61.4631 160.714 61.2301C160.862 60.9943 161.059 60.8097 161.306 60.6761C161.554 60.5426 161.826 60.4432 162.125 60.3778C162.426 60.3097 162.728 60.2557 163.032 60.2159C163.43 60.1648 163.752 60.1264 164 60.1009C164.25 60.0724 164.431 60.0256 164.545 59.9602C164.662 59.8949 164.72 59.7812 164.72 59.6193V59.5852C164.72 59.1648 164.605 58.8381 164.375 58.6051C164.147 58.3722 163.802 58.2557 163.339 58.2557C162.859 58.2557 162.483 58.3608 162.21 58.571C161.937 58.7812 161.745 59.0057 161.635 59.2443L160.68 58.9034C160.85 58.5057 161.078 58.196 161.362 57.9744C161.649 57.75 161.961 57.5937 162.299 57.5057C162.64 57.4148 162.975 57.3693 163.305 57.3693C163.515 57.3693 163.757 57.3949 164.029 57.446C164.305 57.4943 164.571 57.5952 164.826 57.7486C165.085 57.902 165.299 58.1335 165.47 58.4432C165.64 58.7528 165.725 59.1676 165.725 59.6875V64H164.72V63.1136H164.669C164.6 63.2557 164.487 63.4077 164.328 63.5696C164.169 63.7315 163.957 63.8693 163.693 63.983C163.429 64.0966 163.106 64.1534 162.725 64.1534ZM162.879 63.25C163.277 63.25 163.612 63.1719 163.885 63.0156C164.16 62.8594 164.368 62.6577 164.507 62.4105C164.649 62.1634 164.72 61.9034 164.72 61.6307V60.7102C164.677 60.7614 164.583 60.8082 164.439 60.8509C164.297 60.8906 164.132 60.9261 163.944 60.9574C163.76 60.9858 163.579 61.0114 163.403 61.0341C163.23 61.054 163.089 61.071 162.981 61.0852C162.72 61.1193 162.475 61.1747 162.248 61.2514C162.024 61.3253 161.842 61.4375 161.703 61.5881C161.566 61.7358 161.498 61.9375 161.498 62.1932C161.498 62.5426 161.627 62.8068 161.886 62.9858C162.147 63.1619 162.478 63.25 162.879 63.25ZM168.567 55.2727V64H167.561V55.2727H168.567ZM180.943 58H179.886C179.824 57.696 179.714 57.429 179.558 57.1989C179.404 56.9688 179.217 56.7756 178.995 56.6193C178.777 56.4602 178.534 56.3409 178.267 56.2614C178 56.1818 177.721 56.142 177.431 56.142C176.903 56.142 176.424 56.2756 175.995 56.5426C175.569 56.8097 175.23 57.2031 174.977 57.723C174.727 58.2429 174.602 58.8807 174.602 59.6364C174.602 60.392 174.727 61.0298 174.977 61.5497C175.23 62.0696 175.569 62.4631 175.995 62.7301C176.424 62.9972 176.903 63.1307 177.431 63.1307C177.721 63.1307 178 63.0909 178.267 63.0114C178.534 62.9318 178.777 62.8139 178.995 62.6577C179.217 62.4986 179.404 62.304 179.558 62.0739C179.714 61.8409 179.824 61.5739 179.886 61.2727H180.943C180.863 61.7187 180.718 62.1179 180.508 62.4702C180.298 62.8224 180.037 63.1222 179.724 63.3693C179.412 63.6136 179.061 63.7997 178.672 63.9276C178.285 64.0554 177.872 64.1193 177.431 64.1193C176.687 64.1193 176.025 63.9375 175.446 63.5739C174.866 63.2102 174.41 62.6932 174.078 62.0227C173.745 61.3523 173.579 60.5568 173.579 59.6364C173.579 58.7159 173.745 57.9205 174.078 57.25C174.41 56.5795 174.866 56.0625 175.446 55.6989C176.025 55.3352 176.687 55.1534 177.431 55.1534C177.872 55.1534 178.285 55.2173 178.672 55.3452C179.061 55.473 179.412 55.6605 179.724 55.9077C180.037 56.152 180.298 56.4503 180.508 56.8026C180.718 57.152 180.863 57.5511 180.943 58ZM182.514 64V57.4545H183.486V58.4432H183.554C183.673 58.1193 183.889 57.8565 184.202 57.6548C184.514 57.4531 184.866 57.3523 185.259 57.3523C185.332 57.3523 185.425 57.3537 185.536 57.3565C185.646 57.3594 185.73 57.3636 185.787 57.3693V58.392C185.753 58.3835 185.675 58.3707 185.553 58.3537C185.433 58.3338 185.307 58.3239 185.173 58.3239C184.855 58.3239 184.571 58.3906 184.321 58.5241C184.074 58.6548 183.878 58.8366 183.733 59.0696C183.591 59.2997 183.52 59.5625 183.52 59.858V64H182.514ZM189.524 64.1364C188.893 64.1364 188.349 63.9972 187.892 63.7188C187.438 63.4375 187.087 63.0455 186.839 62.5426C186.595 62.0369 186.473 61.4489 186.473 60.7784C186.473 60.108 186.595 59.517 186.839 59.0057C187.087 58.4915 187.43 58.0909 187.871 57.804C188.314 57.5142 188.831 57.3693 189.422 57.3693C189.763 57.3693 190.099 57.4261 190.432 57.5398C190.764 57.6534 191.067 57.8381 191.339 58.0938C191.612 58.3466 191.83 58.6818 191.991 59.0994C192.153 59.517 192.234 60.0312 192.234 60.642V61.0682H187.189V60.1989H191.212C191.212 59.8295 191.138 59.5 190.99 59.2102C190.845 58.9205 190.638 58.6918 190.368 58.5241C190.101 58.3565 189.786 58.2727 189.422 58.2727C189.021 58.2727 188.675 58.3722 188.382 58.571C188.092 58.767 187.869 59.0227 187.713 59.3381C187.557 59.6534 187.479 59.9915 187.479 60.3523V60.9318C187.479 61.4261 187.564 61.8452 187.734 62.1889C187.908 62.5298 188.148 62.7898 188.455 62.9688C188.761 63.1449 189.118 63.233 189.524 63.233C189.788 63.233 190.027 63.196 190.24 63.1222C190.456 63.0455 190.642 62.9318 190.798 62.7812C190.955 62.6278 191.075 62.4375 191.161 62.2102L192.132 62.483C192.03 62.8125 191.858 63.1023 191.616 63.3523C191.375 63.5994 191.077 63.7926 190.722 63.9318C190.366 64.0682 189.967 64.1364 189.524 64.1364ZM195.247 64L193.253 57.4545H194.31L195.724 62.4659H195.793L197.19 57.4545H198.264L199.645 62.4489H199.713L201.128 57.4545H202.185L200.19 64H199.202L197.77 58.9716H197.668L196.236 64H195.247Z" fill="white" fill-opacity="0.8"/>
<path d="M260.164 42H252.422V40.6094L255.367 37.6484C256.237 36.7578 256.812 36.1276 257.094 35.7578C257.38 35.3828 257.589 35.0312 257.719 34.7031C257.849 34.375 257.914 34.0234 257.914 33.6484C257.914 33.1328 257.758 32.7266 257.445 32.4297C257.138 32.1328 256.711 31.9844 256.164 31.9844C255.727 31.9844 255.302 32.0651 254.891 32.2266C254.484 32.388 254.013 32.6797 253.477 33.1016L252.484 31.8906C253.12 31.3542 253.737 30.974 254.336 30.75C254.935 30.526 255.573 30.4141 256.25 30.4141C257.312 30.4141 258.164 30.6927 258.805 31.25C259.445 31.8021 259.766 32.5469 259.766 33.4844C259.766 34 259.672 34.4896 259.484 34.9531C259.302 35.4167 259.018 35.8958 258.633 36.3906C258.253 36.8802 257.617 37.5443 256.727 38.3828L254.742 40.3047V40.3828H260.164V42ZM265.438 34.8672C266.589 34.8672 267.5 35.1719 268.172 35.7812C268.844 36.3906 269.18 37.2214 269.18 38.2734C269.18 39.4922 268.797 40.4453 268.031 41.1328C267.271 41.8151 266.188 42.1562 264.781 42.1562C263.505 42.1562 262.503 41.9505 261.773 41.5391V39.875C262.195 40.1146 262.68 40.2995 263.227 40.4297C263.773 40.5599 264.281 40.625 264.75 40.625C265.578 40.625 266.208 40.4401 266.641 40.0703C267.073 39.7005 267.289 39.1589 267.289 38.4453C267.289 37.0807 266.419 36.3984 264.68 36.3984C264.435 36.3984 264.133 36.4245 263.773 36.4766C263.414 36.5234 263.099 36.5781 262.828 36.6406L262.008 36.1562L262.445 30.5781H268.383V32.2109H264.062L263.805 35.0391C263.987 35.0078 264.208 34.9714 264.469 34.9297C264.734 34.888 265.057 34.8672 265.438 34.8672ZM278.445 36.2891C278.445 38.2734 278.125 39.7474 277.484 40.7109C276.849 41.6745 275.875 42.1562 274.562 42.1562C273.292 42.1562 272.328 41.6589 271.672 40.6641C271.016 39.6693 270.688 38.2109 270.688 36.2891C270.688 34.2734 271.005 32.7891 271.641 31.8359C272.281 30.8776 273.255 30.3984 274.562 30.3984C275.839 30.3984 276.805 30.8984 277.461 31.8984C278.117 32.8984 278.445 34.362 278.445 36.2891ZM272.547 36.2891C272.547 37.8464 272.706 38.9583 273.023 39.625C273.346 40.2917 273.859 40.625 274.562 40.625C275.266 40.625 275.779 40.2865 276.102 39.6094C276.43 38.9323 276.594 37.8255 276.594 36.2891C276.594 34.7578 276.43 33.651 276.102 32.9688C275.779 32.2812 275.266 31.9375 274.562 31.9375C273.859 31.9375 273.346 32.2734 273.023 32.9453C272.706 33.6172 272.547 34.7318 272.547 36.2891ZM287.586 36.2891C287.586 38.2734 287.266 39.7474 286.625 40.7109C285.99 41.6745 285.016 42.1562 283.703 42.1562C282.432 42.1562 281.469 41.6589 280.812 40.6641C280.156 39.6693 279.828 38.2109 279.828 36.2891C279.828 34.2734 280.146 32.7891 280.781 31.8359C281.422 30.8776 282.396 30.3984 283.703 30.3984C284.979 30.3984 285.945 30.8984 286.602 31.8984C287.258 32.8984 287.586 34.362 287.586 36.2891ZM281.688 36.2891C281.688 37.8464 281.846 38.9583 282.164 39.625C282.487 40.2917 283 40.625 283.703 40.625C284.406 40.625 284.919 40.2865 285.242 39.6094C285.57 38.9323 285.734 37.8255 285.734 36.2891C285.734 34.7578 285.57 33.651 285.242 32.9688C284.919 32.2812 284.406 31.9375 283.703 31.9375C283 31.9375 282.487 32.2734 282.164 32.9453C281.846 33.6172 281.688 34.7318 281.688 36.2891Z" fill="white"/>
<path d="M231.541 64V55.2727H232.598V59.1591H237.251V55.2727H238.308V64H237.251V60.0966H232.598V64H231.541ZM242.214 64.1534C241.799 64.1534 241.423 64.0753 241.085 63.919C240.746 63.7599 240.478 63.5312 240.279 63.233C240.08 62.9318 239.981 62.5682 239.981 62.142C239.981 61.767 240.055 61.4631 240.202 61.2301C240.35 60.9943 240.548 60.8097 240.795 60.6761C241.042 60.5426 241.315 60.4432 241.613 60.3778C241.914 60.3097 242.217 60.2557 242.521 60.2159C242.918 60.1648 243.241 60.1264 243.488 60.1009C243.738 60.0724 243.92 60.0256 244.033 59.9602C244.15 59.8949 244.208 59.7812 244.208 59.6193V59.5852C244.208 59.1648 244.093 58.8381 243.863 58.6051C243.636 58.3722 243.29 58.2557 242.827 58.2557C242.347 58.2557 241.971 58.3608 241.698 58.571C241.425 58.7812 241.234 59.0057 241.123 59.2443L240.168 58.9034C240.339 58.5057 240.566 58.196 240.85 57.9744C241.137 57.75 241.45 57.5937 241.788 57.5057C242.129 57.4148 242.464 57.3693 242.793 57.3693C243.004 57.3693 243.245 57.3949 243.518 57.446C243.793 57.4943 244.059 57.5952 244.315 57.7486C244.573 57.902 244.788 58.1335 244.958 58.4432C245.129 58.7528 245.214 59.1676 245.214 59.6875V64H244.208V63.1136H244.157C244.089 63.2557 243.975 63.4077 243.816 63.5696C243.657 63.7315 243.445 63.8693 243.181 63.983C242.917 64.0966 242.594 64.1534 242.214 64.1534ZM242.367 63.25C242.765 63.25 243.1 63.1719 243.373 63.0156C243.648 62.8594 243.856 62.6577 243.995 62.4105C244.137 62.1634 244.208 61.9034 244.208 61.6307V60.7102C244.165 60.7614 244.072 60.8082 243.927 60.8509C243.785 60.8906 243.62 60.9261 243.433 60.9574C243.248 60.9858 243.067 61.0114 242.891 61.0341C242.718 61.054 242.577 61.071 242.469 61.0852C242.208 61.1193 241.964 61.1747 241.737 61.2514C241.512 61.3253 241.33 61.4375 241.191 61.5881C241.055 61.7358 240.987 61.9375 240.987 62.1932C240.987 62.5426 241.116 62.8068 241.374 62.9858C241.636 63.1619 241.967 63.25 242.367 63.25ZM247.049 66.4545V57.4545H248.021V58.4943H248.14C248.214 58.3807 248.316 58.2358 248.447 58.0597C248.581 57.8807 248.771 57.7216 249.018 57.5824C249.268 57.4403 249.606 57.3693 250.032 57.3693C250.583 57.3693 251.069 57.5071 251.49 57.7827C251.91 58.0582 252.238 58.4489 252.474 58.9545C252.71 59.4602 252.828 60.0568 252.828 60.7443C252.828 61.4375 252.71 62.0384 252.474 62.5469C252.238 63.0526 251.912 63.4446 251.494 63.723C251.076 63.9986 250.595 64.1364 250.049 64.1364C249.629 64.1364 249.292 64.0668 249.039 63.9276C248.787 63.7855 248.592 63.625 248.456 63.446C248.319 63.2642 248.214 63.1136 248.14 62.9943H248.055V66.4545H247.049ZM248.038 60.7273C248.038 61.2216 248.11 61.6577 248.255 62.0355C248.4 62.4105 248.612 62.7045 248.89 62.9176C249.169 63.1278 249.51 63.233 249.913 63.233C250.333 63.233 250.684 63.1222 250.966 62.9006C251.25 62.6761 251.463 62.375 251.605 61.9972C251.75 61.6165 251.822 61.1932 251.822 60.7273C251.822 60.267 251.751 59.8523 251.609 59.483C251.47 59.1108 251.258 58.8168 250.974 58.6009C250.693 58.3821 250.339 58.2727 249.913 58.2727C249.504 58.2727 249.16 58.3764 248.882 58.5838C248.603 58.7884 248.393 59.0753 248.251 59.4446C248.109 59.8111 248.038 60.2386 248.038 60.7273ZM254.362 66.4545V57.4545H255.333V58.4943H255.453C255.527 58.3807 255.629 58.2358 255.76 58.0597C255.893 57.8807 256.083 57.7216 256.331 57.5824C256.581 57.4403 256.919 57.3693 257.345 57.3693C257.896 57.3693 258.382 57.5071 258.802 57.7827C259.223 58.0582 259.551 58.4489 259.787 58.9545C260.022 59.4602 260.14 60.0568 260.14 60.7443C260.14 61.4375 260.022 62.0384 259.787 62.5469C259.551 63.0526 259.224 63.4446 258.806 63.723C258.389 63.9986 257.907 64.1364 257.362 64.1364C256.941 64.1364 256.605 64.0668 256.352 63.9276C256.099 63.7855 255.904 63.625 255.768 63.446C255.632 63.2642 255.527 63.1136 255.453 62.9943H255.368V66.4545H254.362ZM255.35 60.7273C255.35 61.2216 255.423 61.6577 255.568 62.0355C255.713 62.4105 255.924 62.7045 256.203 62.9176C256.481 63.1278 256.822 63.233 257.225 63.233C257.646 63.233 257.997 63.1222 258.278 62.9006C258.562 62.6761 258.775 62.375 258.917 61.9972C259.062 61.6165 259.135 61.1932 259.135 60.7273C259.135 60.267 259.064 59.8523 258.922 59.483C258.782 59.1108 258.571 58.8168 258.287 58.6009C258.005 58.3821 257.652 58.2727 257.225 58.2727C256.816 58.2727 256.473 58.3764 256.194 58.5838C255.916 58.7884 255.706 59.0753 255.564 59.4446C255.422 59.8111 255.35 60.2386 255.35 60.7273ZM262.088 66.4545C261.917 66.4545 261.765 66.4403 261.632 66.4119C261.498 66.3864 261.406 66.3608 261.355 66.3352L261.61 65.4489C261.855 65.5114 262.071 65.5341 262.258 65.517C262.446 65.5 262.612 65.4162 262.757 65.2656C262.904 65.1179 263.039 64.8778 263.162 64.5455L263.349 64.0341L260.929 57.4545H262.02L263.826 62.6705H263.895L265.701 57.4545H266.792L264.014 64.9545C263.889 65.2926 263.734 65.5724 263.549 65.794C263.365 66.0185 263.15 66.1847 262.906 66.2926C262.664 66.4006 262.392 66.4545 262.088 66.4545ZM278.654 58H277.597C277.534 57.696 277.425 57.429 277.269 57.1989C277.115 56.9688 276.928 56.7756 276.706 56.6193C276.488 56.4602 276.245 56.3409 275.978 56.2614C275.711 56.1818 275.432 56.142 275.142 56.142C274.614 56.142 274.135 56.2756 273.706 56.5426C273.28 56.8097 272.941 57.2031 272.688 57.723C272.438 58.2429 272.313 58.8807 272.313 59.6364C272.313 60.392 272.438 61.0298 272.688 61.5497C272.941 62.0696 273.28 62.4631 273.706 62.7301C274.135 62.9972 274.614 63.1307 275.142 63.1307C275.432 63.1307 275.711 63.0909 275.978 63.0114C276.245 62.9318 276.488 62.8139 276.706 62.6577C276.928 62.4986 277.115 62.304 277.269 62.0739C277.425 61.8409 277.534 61.5739 277.597 61.2727H278.654C278.574 61.7187 278.429 62.1179 278.219 62.4702C278.009 62.8224 277.748 63.1222 277.435 63.3693C277.123 63.6136 276.772 63.7997 276.382 63.9276C275.996 64.0554 275.583 64.1193 275.142 64.1193C274.398 64.1193 273.736 63.9375 273.157 63.5739C272.577 63.2102 272.121 62.6932 271.789 62.0227C271.456 61.3523 271.29 60.5568 271.29 59.6364C271.29 58.7159 271.456 57.9205 271.789 57.25C272.121 56.5795 272.577 56.0625 273.157 55.6989C273.736 55.3352 274.398 55.1534 275.142 55.1534C275.583 55.1534 275.996 55.2173 276.382 55.3452C276.772 55.473 277.123 55.6605 277.435 55.9077C277.748 56.152 278.009 56.4503 278.219 56.8026C278.429 57.152 278.574 57.5511 278.654 58ZM281.231 55.2727V64H280.225V55.2727H281.231ZM283.073 64V57.4545H284.078V64H283.073ZM283.584 56.3636C283.388 56.3636 283.219 56.2969 283.077 56.1634C282.938 56.0298 282.868 55.8693 282.868 55.6818C282.868 55.4943 282.938 55.3338 283.077 55.2003C283.219 55.0668 283.388 55 283.584 55C283.78 55 283.948 55.0668 284.087 55.2003C284.229 55.3338 284.3 55.4943 284.3 55.6818C284.3 55.8693 284.229 56.0298 284.087 56.1634C283.948 56.2969 283.78 56.3636 283.584 56.3636ZM288.665 64.1364C288.034 64.1364 287.49 63.9972 287.033 63.7188C286.578 63.4375 286.227 63.0455 285.98 62.5426C285.736 62.0369 285.614 61.4489 285.614 60.7784C285.614 60.108 285.736 59.517 285.98 59.0057C286.227 58.4915 286.571 58.0909 287.011 57.804C287.455 57.5142 287.972 57.3693 288.562 57.3693C288.903 57.3693 289.24 57.4261 289.572 57.5398C289.905 57.6534 290.207 57.8381 290.48 58.0938C290.753 58.3466 290.97 58.6818 291.132 59.0994C291.294 59.517 291.375 60.0312 291.375 60.642V61.0682H286.33V60.1989H290.352C290.352 59.8295 290.278 59.5 290.131 59.2102C289.986 58.9205 289.778 58.6918 289.509 58.5241C289.241 58.3565 288.926 58.2727 288.562 58.2727C288.162 58.2727 287.815 58.3722 287.523 58.571C287.233 58.767 287.01 59.0227 286.854 59.3381C286.697 59.6534 286.619 59.9915 286.619 60.3523V60.9318C286.619 61.4261 286.705 61.8452 286.875 62.1889C287.048 62.5298 287.288 62.7898 287.595 62.9688C287.902 63.1449 288.259 63.233 288.665 63.233C288.929 63.233 289.168 63.196 289.381 63.1222C289.597 63.0455 289.783 62.9318 289.939 62.7812C290.095 62.6278 290.216 62.4375 290.301 62.2102L291.273 62.483C291.17 62.8125 290.999 63.1023 290.757 63.3523C290.516 63.5994 290.217 63.7926 289.862 63.9318C289.507 64.0682 289.108 64.1364 288.665 64.1364ZM293.911 60.0625V64H292.905V57.4545H293.876V58.4773H293.962C294.115 58.1449 294.348 57.8778 294.661 57.6761C294.973 57.4716 295.376 57.3693 295.871 57.3693C296.314 57.3693 296.702 57.4602 297.034 57.642C297.366 57.821 297.625 58.0938 297.81 58.4602C297.994 58.8239 298.087 59.2841 298.087 59.8409V64H297.081V59.9091C297.081 59.3949 296.947 58.9943 296.68 58.7074C296.413 58.4176 296.047 58.2727 295.581 58.2727C295.26 58.2727 294.973 58.3423 294.72 58.4815C294.47 58.6207 294.273 58.8239 294.128 59.0909C293.983 59.358 293.911 59.6818 293.911 60.0625ZM302.771 57.4545V58.3068H299.379V57.4545H302.771ZM300.368 55.8864H301.373V62.125C301.373 62.4091 301.414 62.6222 301.497 62.7642C301.582 62.9034 301.69 62.9972 301.821 63.0455C301.954 63.0909 302.095 63.1136 302.243 63.1136C302.353 63.1136 302.444 63.108 302.515 63.0966C302.586 63.0824 302.643 63.071 302.686 63.0625L302.89 63.9659C302.822 63.9915 302.727 64.017 302.605 64.0426C302.483 64.071 302.328 64.0852 302.14 64.0852C301.856 64.0852 301.578 64.0241 301.305 63.902C301.035 63.7798 300.811 63.5938 300.632 63.3438C300.456 63.0938 300.368 62.7784 300.368 62.3977V55.8864ZM308.803 58.9205L307.9 59.1761C307.843 59.0256 307.759 58.8793 307.648 58.7372C307.54 58.5923 307.392 58.473 307.205 58.3793C307.017 58.2855 306.777 58.2386 306.485 58.2386C306.084 58.2386 305.75 58.331 305.483 58.5156C305.219 58.6974 305.087 58.929 305.087 59.2102C305.087 59.4602 305.178 59.6577 305.36 59.8026C305.542 59.9474 305.826 60.0682 306.212 60.1648L307.184 60.4034C307.769 60.5455 308.205 60.7628 308.492 61.0554C308.779 61.3452 308.922 61.7187 308.922 62.1761C308.922 62.5511 308.814 62.8864 308.598 63.1818C308.385 63.4773 308.087 63.7102 307.703 63.8807C307.32 64.0511 306.874 64.1364 306.365 64.1364C305.698 64.1364 305.145 63.9915 304.708 63.7017C304.27 63.4119 303.993 62.9886 303.877 62.4318L304.831 62.1932C304.922 62.5455 305.094 62.8097 305.347 62.9858C305.603 63.1619 305.936 63.25 306.348 63.25C306.817 63.25 307.189 63.1506 307.465 62.9517C307.743 62.75 307.882 62.5085 307.882 62.2273C307.882 62 307.803 61.8097 307.644 61.6562C307.485 61.5 307.24 61.3835 306.911 61.3068L305.82 61.0511C305.221 60.9091 304.78 60.6889 304.499 60.3906C304.221 60.0895 304.081 59.7131 304.081 59.2614C304.081 58.892 304.185 58.5653 304.392 58.2812C304.603 57.9972 304.888 57.7741 305.249 57.6122C305.613 57.4503 306.025 57.3693 306.485 57.3693C307.132 57.3693 307.641 57.5114 308.01 57.7955C308.382 58.0795 308.647 58.4545 308.803 58.9205Z" fill="white" fill-opacity="0.8"/>
<path d="M362.594 42H354.852V40.6094L357.797 37.6484C358.667 36.7578 359.242 36.1276 359.523 35.7578C359.81 35.3828 360.018 35.0312 360.148 34.7031C360.279 34.375 360.344 34.0234 360.344 33.6484C360.344 33.1328 360.188 32.7266 359.875 32.4297C359.568 32.1328 359.141 31.9844 358.594 31.9844C358.156 31.9844 357.732 32.0651 357.32 32.2266C356.914 32.388 356.443 32.6797 355.906 33.1016L354.914 31.8906C355.549 31.3542 356.167 30.974 356.766 30.75C357.365 30.526 358.003 30.4141 358.68 30.4141C359.742 30.4141 360.594 30.6927 361.234 31.25C361.875 31.8021 362.195 32.5469 362.195 33.4844C362.195 34 362.102 34.4896 361.914 34.9531C361.732 35.4167 361.448 35.8958 361.062 36.3906C360.682 36.8802 360.047 37.5443 359.156 38.3828L357.172 40.3047V40.3828H362.594V42ZM367.852 30.4297C368.935 30.4297 369.792 30.6797 370.422 31.1797C371.052 31.6745 371.367 32.3385 371.367 33.1719C371.367 34.3438 370.664 35.276 369.258 35.9688C370.154 36.4167 370.789 36.888 371.164 37.3828C371.544 37.8776 371.734 38.4297 371.734 39.0391C371.734 39.9818 371.388 40.737 370.695 41.3047C370.003 41.8724 369.065 42.1562 367.883 42.1562C366.643 42.1562 365.682 41.8906 365 41.3594C364.318 40.8281 363.977 40.0755 363.977 39.1016C363.977 38.4661 364.154 37.8958 364.508 37.3906C364.867 36.8802 365.453 36.4271 366.266 36.0312C365.568 35.6146 365.07 35.1745 364.773 34.7109C364.477 34.2474 364.328 33.7266 364.328 33.1484C364.328 32.3203 364.654 31.6615 365.305 31.1719C365.956 30.6771 366.805 30.4297 367.852 30.4297ZM365.734 39.0391C365.734 39.5807 365.924 40.0026 366.305 40.3047C366.685 40.6016 367.201 40.75 367.852 40.75C368.523 40.75 369.044 40.5964 369.414 40.2891C369.789 39.9766 369.977 39.5547 369.977 39.0234C369.977 38.6016 369.805 38.2161 369.461 37.8672C369.117 37.5182 368.596 37.1953 367.898 36.8984L367.672 36.7969C366.984 37.099 366.49 37.4323 366.188 37.7969C365.885 38.1562 365.734 38.5703 365.734 39.0391ZM367.836 31.8438C367.315 31.8438 366.896 31.974 366.578 32.2344C366.26 32.4896 366.102 32.8385 366.102 33.2812C366.102 33.5521 366.159 33.7943 366.273 34.0078C366.388 34.2214 366.555 34.4167 366.773 34.5938C366.992 34.7656 367.362 34.974 367.883 35.2188C368.508 34.9427 368.948 34.6536 369.203 34.3516C369.464 34.0443 369.594 33.6875 369.594 33.2812C369.594 32.8385 369.432 32.4896 369.109 32.2344C368.792 31.974 368.367 31.8438 367.836 31.8438ZM380.875 36.2891C380.875 38.2734 380.555 39.7474 379.914 40.7109C379.279 41.6745 378.305 42.1562 376.992 42.1562C375.721 42.1562 374.758 41.6589 374.102 40.6641C373.445 39.6693 373.117 38.2109 373.117 36.2891C373.117 34.2734 373.435 32.7891 374.07 31.8359C374.711 30.8776 375.685 30.3984 376.992 30.3984C378.268 30.3984 379.234 30.8984 379.891 31.8984C380.547 32.8984 380.875 34.362 380.875 36.2891ZM374.977 36.2891C374.977 37.8464 375.135 38.9583 375.453 39.625C375.776 40.2917 376.289 40.625 376.992 40.625C377.695 40.625 378.208 40.2865 378.531 39.6094C378.859 38.9323 379.023 37.8255 379.023 36.2891C379.023 34.7578 378.859 33.651 378.531 32.9688C378.208 32.2812 377.695 31.9375 376.992 31.9375C376.289 31.9375 375.776 32.2734 375.453 32.9453C375.135 33.6172 374.977 34.7318 374.977 36.2891ZM390.016 36.2891C390.016 38.2734 389.695 39.7474 389.055 40.7109C388.419 41.6745 387.445 42.1562 386.133 42.1562C384.862 42.1562 383.898 41.6589 383.242 40.6641C382.586 39.6693 382.258 38.2109 382.258 36.2891C382.258 34.2734 382.576 32.7891 383.211 31.8359C383.852 30.8776 384.826 30.3984 386.133 30.3984C387.409 30.3984 388.375 30.8984 389.031 31.8984C389.688 32.8984 390.016 34.362 390.016 36.2891ZM384.117 36.2891C384.117 37.8464 384.276 38.9583 384.594 39.625C384.917 40.2917 385.43 40.625 386.133 40.625C386.836 40.625 387.349 40.2865 387.672 39.6094C388 38.9323 388.164 37.8255 388.164 36.2891C388.164 34.7578 388 33.651 387.672 32.9688C387.349 32.2812 386.836 31.9375 386.133 31.9375C385.43 31.9375 384.917 32.2734 384.594 32.9453C384.276 33.6172 384.117 34.7318 384.117 36.2891ZM394.57 37.0547H391.461V35.6641H394.57V32.4766H395.977V35.6641H399.094V37.0547H395.977V40.2266H394.57V37.0547Z" fill="white"/>
<path d="M338.712 64H337.604L340.808 55.2727H341.899L345.104 64H343.996L341.388 56.6534H341.32L338.712 64ZM339.121 60.5909H343.587V61.5284H339.121V60.5909ZM347.332 60.0625V64H346.327V57.4545H347.298V58.4773H347.384C347.537 58.1449 347.77 57.8778 348.082 57.6761C348.395 57.4716 348.798 57.3693 349.293 57.3693C349.736 57.3693 350.124 57.4602 350.456 57.642C350.788 57.821 351.047 58.0938 351.232 58.4602C351.416 58.8239 351.509 59.2841 351.509 59.8409V64H350.503V59.9091C350.503 59.3949 350.369 58.9943 350.102 58.7074C349.835 58.4176 349.469 58.2727 349.003 58.2727C348.682 58.2727 348.395 58.3423 348.142 58.4815C347.892 58.6207 347.695 58.8239 347.55 59.0909C347.405 59.358 347.332 59.6818 347.332 60.0625ZM354.352 60.0625V64H353.346V57.4545H354.318V58.4773H354.403C354.556 58.1449 354.789 57.8778 355.102 57.6761C355.414 57.4716 355.818 57.3693 356.312 57.3693C356.755 57.3693 357.143 57.4602 357.475 57.642C357.808 57.821 358.066 58.0938 358.251 58.4602C358.436 58.8239 358.528 59.2841 358.528 59.8409V64H357.522V59.9091C357.522 59.3949 357.389 58.9943 357.122 58.7074C356.855 58.4176 356.488 58.2727 356.022 58.2727C355.701 58.2727 355.414 58.3423 355.162 58.4815C354.912 58.6207 354.714 58.8239 354.569 59.0909C354.424 59.358 354.352 59.6818 354.352 60.0625ZM364.491 61.3239V57.4545H365.496V64H364.491V62.892H364.423C364.269 63.2244 364.031 63.5071 363.707 63.7401C363.383 63.9702 362.974 64.0852 362.479 64.0852C362.07 64.0852 361.707 63.9957 361.388 63.8168C361.07 63.6349 360.82 63.3622 360.638 62.9986C360.457 62.6321 360.366 62.1705 360.366 61.6136V57.4545H361.371V61.5455C361.371 62.0227 361.505 62.4034 361.772 62.6875C362.042 62.9716 362.386 63.1136 362.803 63.1136C363.053 63.1136 363.308 63.0497 363.566 62.9219C363.827 62.794 364.046 62.598 364.222 62.3338C364.401 62.0696 364.491 61.733 364.491 61.3239ZM369.265 64.1534C368.85 64.1534 368.473 64.0753 368.135 63.919C367.797 63.7599 367.529 63.5312 367.33 63.233C367.131 62.9318 367.032 62.5682 367.032 62.142C367.032 61.767 367.105 61.4631 367.253 61.2301C367.401 60.9943 367.598 60.8097 367.846 60.6761C368.093 60.5426 368.365 60.4432 368.664 60.3778C368.965 60.3097 369.267 60.2557 369.571 60.2159C369.969 60.1648 370.292 60.1264 370.539 60.1009C370.789 60.0724 370.971 60.0256 371.084 59.9602C371.201 59.8949 371.259 59.7812 371.259 59.6193V59.5852C371.259 59.1648 371.144 58.8381 370.914 58.6051C370.686 58.3722 370.341 58.2557 369.878 58.2557C369.398 58.2557 369.022 58.3608 368.749 58.571C368.476 58.7812 368.284 59.0057 368.174 59.2443L367.219 58.9034C367.39 58.5057 367.617 58.196 367.901 57.9744C368.188 57.75 368.5 57.5937 368.838 57.5057C369.179 57.4148 369.515 57.3693 369.844 57.3693C370.054 57.3693 370.296 57.3949 370.569 57.446C370.844 57.4943 371.11 57.5952 371.365 57.7486C371.624 57.902 371.838 58.1335 372.009 58.4432C372.179 58.7528 372.265 59.1676 372.265 59.6875V64H371.259V63.1136H371.208C371.14 63.2557 371.026 63.4077 370.867 63.5696C370.708 63.7315 370.496 63.8693 370.232 63.983C369.968 64.0966 369.645 64.1534 369.265 64.1534ZM369.418 63.25C369.816 63.25 370.151 63.1719 370.424 63.0156C370.699 62.8594 370.907 62.6577 371.046 62.4105C371.188 62.1634 371.259 61.9034 371.259 61.6307V60.7102C371.216 60.7614 371.123 60.8082 370.978 60.8509C370.836 60.8906 370.671 60.9261 370.483 60.9574C370.299 60.9858 370.118 61.0114 369.942 61.0341C369.769 61.054 369.628 61.071 369.52 61.0852C369.259 61.1193 369.015 61.1747 368.787 61.2514C368.563 61.3253 368.381 61.4375 368.242 61.5881C368.105 61.7358 368.037 61.9375 368.037 62.1932C368.037 62.5426 368.167 62.8068 368.425 62.9858C368.686 63.1619 369.017 63.25 369.418 63.25ZM375.106 55.2727V64H374.1V55.2727H375.106ZM380.459 55.2727H381.721L384.686 62.517H384.789L387.755 55.2727H389.016V64H388.027V57.3693H387.942L385.215 64H384.26L381.533 57.3693H381.448V64H380.459V55.2727ZM393.658 64.1364C393.067 64.1364 392.548 63.9957 392.102 63.7145C391.659 63.4332 391.312 63.0398 391.062 62.5341C390.815 62.0284 390.692 61.4375 390.692 60.7614C390.692 60.0795 390.815 59.4844 391.062 58.9759C391.312 58.4673 391.659 58.0724 392.102 57.7912C392.548 57.5099 393.067 57.3693 393.658 57.3693C394.249 57.3693 394.766 57.5099 395.209 57.7912C395.655 58.0724 396.001 58.4673 396.249 58.9759C396.499 59.4844 396.624 60.0795 396.624 60.7614C396.624 61.4375 396.499 62.0284 396.249 62.5341C396.001 63.0398 395.655 63.4332 395.209 63.7145C394.766 63.9957 394.249 64.1364 393.658 64.1364ZM393.658 63.233C394.107 63.233 394.476 63.1179 394.766 62.8878C395.055 62.6577 395.27 62.3551 395.409 61.9801C395.548 61.6051 395.618 61.1989 395.618 60.7614C395.618 60.3239 395.548 59.9162 395.409 59.5384C395.27 59.1605 395.055 58.8551 394.766 58.6222C394.476 58.3892 394.107 58.2727 393.658 58.2727C393.209 58.2727 392.839 58.3892 392.55 58.6222C392.26 58.8551 392.045 59.1605 391.906 59.5384C391.767 59.9162 391.697 60.3239 391.697 60.7614C391.697 61.1989 391.767 61.6051 391.906 61.9801C392.045 62.3551 392.26 62.6577 392.55 62.8878C392.839 63.1179 393.209 63.233 393.658 63.233ZM403.277 57.4545L400.856 64H399.833L397.413 57.4545H398.504L400.311 62.6705H400.379L402.186 57.4545H403.277ZM407.114 64.1364C406.483 64.1364 405.939 63.9972 405.482 63.7188C405.027 63.4375 404.676 63.0455 404.429 62.5426C404.185 62.0369 404.063 61.4489 404.063 60.7784C404.063 60.108 404.185 59.517 404.429 59.0057C404.676 58.4915 405.02 58.0909 405.461 57.804C405.904 57.5142 406.421 57.3693 407.012 57.3693C407.353 57.3693 407.689 57.4261 408.022 57.5398C408.354 57.6534 408.657 57.8381 408.929 58.0938C409.202 58.3466 409.419 58.6818 409.581 59.0994C409.743 59.517 409.824 60.0312 409.824 60.642V61.0682H404.779V60.1989H408.801C408.801 59.8295 408.728 59.5 408.58 59.2102C408.435 58.9205 408.228 58.6918 407.958 58.5241C407.691 58.3565 407.375 58.2727 407.012 58.2727C406.611 58.2727 406.265 58.3722 405.972 58.571C405.682 58.767 405.459 59.0227 405.303 59.3381C405.147 59.6534 405.069 59.9915 405.069 60.3523V60.9318C405.069 61.4261 405.154 61.8452 405.324 62.1889C405.498 62.5298 405.738 62.7898 406.044 62.9688C406.351 63.1449 406.708 63.233 407.114 63.233C407.378 63.233 407.617 63.196 407.83 63.1222C408.046 63.0455 408.232 62.9318 408.388 62.7812C408.544 62.6278 408.665 62.4375 408.75 62.2102L409.722 62.483C409.62 62.8125 409.448 63.1023 409.206 63.3523C408.965 63.5994 408.667 63.7926 408.311 63.9318C407.956 64.0682 407.557 64.1364 407.114 64.1364ZM415.99 58.9205L415.087 59.1761C415.03 59.0256 414.946 58.8793 414.836 58.7372C414.728 58.5923 414.58 58.473 414.392 58.3793C414.205 58.2855 413.965 58.2386 413.672 58.2386C413.272 58.2386 412.938 58.331 412.671 58.5156C412.407 58.6974 412.275 58.929 412.275 59.2102C412.275 59.4602 412.365 59.6577 412.547 59.8026C412.729 59.9474 413.013 60.0682 413.4 60.1648L414.371 60.4034C414.956 60.5455 415.392 60.7628 415.679 61.0554C415.966 61.3452 416.11 61.7187 416.11 62.1761C416.11 62.5511 416.002 62.8864 415.786 63.1818C415.573 63.4773 415.275 63.7102 414.891 63.8807C414.507 64.0511 414.061 64.1364 413.553 64.1364C412.885 64.1364 412.333 63.9915 411.895 63.7017C411.458 63.4119 411.181 62.9886 411.064 62.4318L412.019 62.1932C412.11 62.5455 412.282 62.8097 412.534 62.9858C412.79 63.1619 413.124 63.25 413.536 63.25C414.005 63.25 414.377 63.1506 414.652 62.9517C414.931 62.75 415.07 62.5085 415.07 62.2273C415.07 62 414.99 61.8097 414.831 61.6562C414.672 61.5 414.428 61.3835 414.098 61.3068L413.007 61.0511C412.408 60.9091 411.968 60.6889 411.686 60.3906C411.408 60.0895 411.269 59.7131 411.269 59.2614C411.269 58.892 411.373 58.5653 411.58 58.2812C411.79 57.9972 412.076 57.7741 412.436 57.6122C412.8 57.4503 413.212 57.3693 413.672 57.3693C414.32 57.3693 414.828 57.5114 415.198 57.7955C415.57 58.0795 415.834 58.4545 415.99 58.9205Z" fill="white" fill-opacity="0.8"/>
</g>
<defs>
<filter id="filter0_b_1_16" x="-32" y="-32" width="505" height="160" filterUnits="userSpaceOnUse" color-interpolation-filters="sRGB">
<feFlood flood-opacity="0" result="BackgroundImageFix"/>
<feGaussianBlur in="BackgroundImageFix" stdDeviation="16"/>
<feComposite in2="SourceAlpha" operator="in" result="effect1_backgroundBlur_1_16"/>
<feBlend mode="normal" in="SourceGraphic" in2="effect1_backgroundBlur_1_16" result="shape"/>
</filter>
</defs>
</svg>
