<svg width="72" height="72" viewBox="0 0 72 72" fill="none" xmlns="http://www.w3.org/2000/svg">
<g id="Residential">
<path d="M72 36C72 55.8823 55.8823 72 36 72C16.1177 72 0 55.8823 0 36C0 16.1177 16.1177 0 36 0C55.8823 0 72 16.1177 72 36Z" fill="#F4D3FC"/>
<path d="M33 36H39V38H33V36ZM46.781 34.625C46.6873 34.7421 46.5684 34.8366 46.4332 34.9015C46.298 34.9664 46.15 35.0001 46 35H45V46C45 46.2652 44.8946 46.5196 44.7071 46.7071C44.5196 46.8946 44.2652 47 44 47H28C27.7348 47 27.4804 46.8946 27.2929 46.7071C27.1054 46.5196 27 46.2652 27 46V35H26L26.016 34.984C25.8639 34.9905 25.7124 34.9614 25.5736 34.8991C25.4347 34.8368 25.3123 34.7429 25.216 34.625C25.1339 34.5225 25.0728 34.4047 25.0362 34.2786C24.9996 34.1524 24.9882 34.0202 25.0027 33.8897C25.0172 33.7591 25.0572 33.6327 25.1206 33.5176C25.184 33.4025 25.2694 33.3011 25.372 33.219L35.372 25.219C35.5494 25.077 35.7698 24.9996 35.997 24.9996C36.2242 24.9996 36.4446 25.077 36.622 25.219L41 28.719V26C41 25.7348 41.1054 25.4804 41.2929 25.2929C41.4804 25.1054 41.7348 25 42 25C42.2652 25 42.5196 25.1054 42.7071 25.2929C42.8946 25.4804 43 25.7348 43 26V30.319L46.625 33.219C46.7276 33.3011 46.813 33.4025 46.8764 33.5176C46.9398 33.6327 46.9798 33.7591 46.9943 33.8897C47.0088 34.0202 46.9974 34.1524 46.9608 34.2786C46.9242 34.4047 46.8631 34.5225 46.781 34.625ZM33.851 29H38.151L36 27.28L33.851 29ZM28.979 32.9H43.021L40.649 31H31.349L28.979 32.9ZM37 42C37 41.7348 36.8946 41.4804 36.7071 41.2929C36.5196 41.1054 36.2652 41 36 41C35.7348 41 35.4804 41.1054 35.2929 41.2929C35.1054 41.4804 35 41.7348 35 42V45H37V42ZM43 35H29V36H31V38H29V40H31V42H29V45H33V42C33 41.2044 33.3161 40.4413 33.8787 39.8787C34.4413 39.3161 35.2043 39 36 39C36.7957 39 37.5587 39.3161 38.1213 39.8787C38.6839 40.4413 39 41.2044 39 42V45H43V42H41V40H43V38H41V36H43V35Z" fill="#712A68"/>
</g>
</svg>
