<svg width="72" height="72" viewBox="0 0 72 72" fill="none" xmlns="http://www.w3.org/2000/svg">
<g id="Special">
<path d="M72 36C72 55.8823 55.8823 72 36 72C16.1177 72 0 55.8823 0 36C0 16.1177 16.1177 0 36 0C55.8823 0 72 16.1177 72 36Z" fill="#F4D3FC"/>
<path d="M25.188 45.584C25.2806 45.7128 25.4026 45.8177 25.5438 45.89C25.685 45.9623 25.8414 46 26 46H46C46.1584 45.9999 46.3144 45.9622 46.4554 45.8899C46.5963 45.8177 46.7181 45.713 46.8106 45.5845C46.9032 45.456 46.9639 45.3074 46.9878 45.1508C47.0117 44.9942 46.998 44.8343 46.948 44.684L44.948 38.684C44.8817 38.485 44.7545 38.3118 44.5844 38.189C44.4142 38.0663 44.2098 38.0002 44 38H41.72L39.948 32.684C39.8817 32.485 39.7545 32.3118 39.5844 32.189C39.4142 32.0663 39.2098 32.0002 39 32H33C32.7902 32.0002 32.5858 32.0663 32.4156 32.189C32.2455 32.3118 32.1183 32.485 32.052 32.684L30.28 38H28C27.7902 38.0002 27.5858 38.0663 27.4156 38.189C27.2455 38.3118 27.1183 38.485 27.052 38.684L25.052 44.684C25.0018 44.8341 24.988 44.9939 25.0117 45.1504C25.0353 45.3068 25.0957 45.4554 25.188 45.584ZM36 41.839L35.387 40H36.613L36 41.839ZM43.279 40L44.612 44H37.388L38.721 40H43.279ZM33.721 34H38.279L39.612 38H32.388L33.721 34ZM28.721 40H33.279L34.612 44H27.388L28.721 40ZM36 30C35.7348 30 35.4804 29.8946 35.2929 29.7071C35.1054 29.5196 35 29.2652 35 29V27C35 26.7348 35.1054 26.4804 35.2929 26.2929C35.4804 26.1054 35.7348 26 36 26C36.2652 26 36.5196 26.1054 36.7071 26.2929C36.8946 26.4804 37 26.7348 37 27V29C37 29.2652 36.8946 29.5196 36.7071 29.7071C36.5196 29.8946 36.2652 30 36 30ZM43.071 28.929C43.2585 29.1165 43.3638 29.3708 43.3638 29.636C43.3638 29.9012 43.2585 30.1555 43.071 30.343L41.657 31.757C41.4684 31.9392 41.2158 32.04 40.9536 32.0377C40.6914 32.0354 40.4406 31.9302 40.2552 31.7448C40.0698 31.5594 39.9646 31.3086 39.9623 31.0464C39.96 30.7842 40.0608 30.5316 40.243 30.343L41.657 28.929C41.8445 28.7415 42.0988 28.6362 42.364 28.6362C42.6292 28.6362 42.8835 28.7415 43.071 28.929ZM30.343 31.757L28.929 30.343C28.7468 30.1544 28.646 29.9018 28.6483 29.6396C28.6506 29.3774 28.7558 29.1266 28.9412 28.9412C29.1266 28.7558 29.3774 28.6506 29.6396 28.6483C29.9018 28.646 30.1544 28.7468 30.343 28.929L31.757 30.343C31.8525 30.4352 31.9287 30.5456 31.9811 30.6676C32.0335 30.7896 32.0611 30.9208 32.0623 31.0536C32.0634 31.1864 32.0381 31.3181 31.9878 31.441C31.9375 31.5639 31.8633 31.6755 31.7694 31.7694C31.6755 31.8633 31.5639 31.9375 31.441 31.9878C31.3181 32.0381 31.1864 32.0634 31.0536 32.0622C30.9208 32.0611 30.7896 32.0335 30.6676 31.9811C30.5456 31.9287 30.4352 31.8525 30.343 31.757ZM27 35H29C29.2652 35 29.5196 35.1054 29.7071 35.2929C29.8946 35.4804 30 35.7348 30 36C30 36.2652 29.8946 36.5196 29.7071 36.7071C29.5196 36.8946 29.2652 37 29 37H27C26.7348 37 26.4804 36.8946 26.2929 36.7071C26.1054 36.5196 26 36.2652 26 36C26 35.7348 26.1054 35.4804 26.2929 35.2929C26.4804 35.1054 26.7348 35 27 35ZM43 35H45C45.2652 35 45.5196 35.1054 45.7071 35.2929C45.8946 35.4804 46 35.7348 46 36C46 36.2652 45.8946 36.5196 45.7071 36.7071C45.5196 36.8946 45.2652 37 45 37H43C42.7348 37 42.4804 36.8946 42.2929 36.7071C42.1054 36.5196 42 36.2652 42 36C42 35.7348 42.1054 35.4804 42.2929 35.2929C42.4804 35.1054 42.7348 35 43 35Z" fill="#712A68"/>
</g>
</svg>
