<svg width="72" height="72" viewBox="0 0 72 72" fill="none" xmlns="http://www.w3.org/2000/svg">
<g id="Storage">
<path d="M72 36C72 55.8823 55.8823 72 36 72C16.1177 72 0 55.8823 0 36C0 16.1177 16.1177 0 36 0C55.8823 0 72 16.1177 72 36Z" fill="#F4D3FC"/>
<path d="M46 35H43V26C43 25.7348 42.8946 25.4804 42.7071 25.2929C42.5196 25.1054 42.2652 25 42 25H30C29.7348 25 29.4804 25.1054 29.2929 25.2929C29.1054 25.4804 29 25.7348 29 26V31H26C25.7348 31 25.4804 31.1054 25.2929 31.2929C25.1054 31.4804 25 31.7348 25 32V46C25 46.2652 25.1054 46.5196 25.2929 46.7071C25.4804 46.8946 25.7348 47 26 47H46C46.2652 47 46.5196 46.8946 46.7071 46.7071C46.8946 46.5196 47 46.2652 47 46V36C47 35.7348 46.8946 35.4804 46.7071 35.2929C46.5196 35.1054 46.2652 35 46 35ZM37 45H27V33H37V45ZM38 31H31V27H41V35H39V32C39 31.7348 38.8946 31.4804 38.7071 31.2929C38.5196 31.1054 38.2652 31 38 31ZM45 45H43V43C43 42.7348 42.8946 42.4804 42.7071 42.2929C42.5196 42.1054 42.2652 42 42 42C41.7348 42 41.4804 42.1054 41.2929 42.2929C41.1054 42.4804 41 42.7348 41 43V45H39V37H45V45ZM28 34H30V36H28V34ZM32 34H36V36H32V34ZM28 38H30V40H28V38ZM32 38H36V40H32V38ZM28 42H30V44H28V42ZM32 42H36V44H32V42Z" fill="#712A68"/>
</g>
</svg>
